<svg id="OBJECT" xmlns="http://www.w3.org/2000/svg" viewBox="0 0 321.64 375.04"><defs><style>.cls-1{fill:#ffb047;}.cls-2{fill:#3f3f3f;}.cls-3{fill:#efefef;}.cls-4{fill:#d3d3d3;}.cls-5{fill:#df9fa1;}.cls-6{fill:#3c2a34;}.cls-7{fill:#fffaef;}.cls-8{fill:#6e7c7d;}.cls-9{fill:#dbeccc;}.cls-10{fill:#f58981;}.cls-11{fill:#ff7900;}.cls-12{fill:#bc8611;opacity:0.2;}.cls-13{fill:#f4efd7;}</style></defs><title>kot</title><path class="cls-1" d="M318.85,365.73s-34.9,16.41-58.27,5.65S165,355.8,120.08,365.73c-66.56,14.71-86.33-9.3-79.34-25.13l53.77-7S164,336.16,216,336.78,316.44,357.05,318.85,365.73Z"/><path class="cls-1" d="M282.37,314.14c0,19.43-63.21,35.19-141.18,35.19S0,333.57,0,314.14,63.21,279,141.19,279,282.37,294.71,282.37,314.14Z"/><path class="cls-2" d="M88.07,312.89s-50.78,10.77-39.62,38.59c8,19.88,102-2.15,148.85-1,33.56.79,59.67,7.73,69.18,12.17,55.83,26.06,81-12.91,18.88-27-30.84-7-55.55-7.68-90.14-6-54.14,2.63-111,13.62-114,8.94C76.48,330.88,118.35,319,118.35,319S113.17,303.4,88.07,312.89Z"/><path class="cls-3" d="M81.55,115.56s-9.68,26.71-35.31,67.15C26.34,214.09-6,313.31,137.49,320.63s111.33-78.15,98.22-124.38,5.93-141.3-50-149.87-52.89-1.12-73.12,12.22C106.79,62.45,81.55,115.56,81.55,115.56Z"/><path class="cls-4" d="M241,214.59s-49.87-2.51-55-47.59c0,0,17.17,40.92,51.76,35.8C237.76,202.8,239.78,210.15,241,214.59Z"/><path class="cls-4" d="M110.66,207.4S93.38,231.92,72.8,218.94s-32.06-26.3-32.06-26.3l7.56-14.72S66.39,218,110.66,207.4Z"/><path class="cls-4" d="M38.5,197.48S3.14,285.39,98.6,290.63s149.47-3.1,147.85-52.29c0,0,18.63,63.44-37.62,76.77C157.89,327.18,83.05,325.8,57.2,300.35S15.12,232.6,38.5,197.48Z"/><path class="cls-2" d="M192.19,53.13l71.62-.62s-5.35,21.62-70.5,32Z"/><path class="cls-5" d="M210.09,59.21l39.71,1.64S236,71.8,217.24,74.28Z"/><path class="cls-2" d="M139.16,56.31,108.25,0s-7.63,42.53-3,70.54Z"/><path class="cls-5" d="M126,47.1,112.29,18.24s-3.38,21.83-4.81,42.8C107.48,61,124,54.22,126,47.1Z"/><path class="cls-2" d="M160.14,43.2s18.13,67.62-20.43,80.91-58.16-8.55-58.16-8.55,9.16-21,16.25-38.35C110.62,45.79,142.24,40.41,160.14,43.2Z"/><path class="cls-2" d="M176.52,45S158.6,112.88,181,126.56s47.28-3.78,47.28-3.78S234.41,45.41,176.52,45Z"/><path class="cls-6" d="M158.86,169.34"/><polygon class="cls-6" points="165.72 128.69 166.33 139.56 168.51 140.12 166.52 128.89 165.72 128.69"/><path class="cls-6" d="M156.47,153.08s9.9-27.73,31.58-18.54C188.05,134.54,171.62,132,156.47,153.08Z"/><path class="cls-1" d="M110.8,90.58l37.76.24s6.84,23.05-17.08,24.94S110.8,90.58,110.8,90.58Z"/><path d="M115.05,86.83l29.47.19s5.34,18-13.33,19.47S115.05,86.83,115.05,86.83Z"/><path class="cls-7" d="M146.53,94.18A2.15,2.15,0,1,1,144.4,92,2.14,2.14,0,0,1,146.53,94.18Z"/><path class="cls-1" d="M178.43,91l37.75.23s6.84,23.06-17.07,25S178.43,91,178.43,91Z"/><path d="M182.67,87.26l29.47.18s5.34,18-13.33,19.48S182.67,87.26,182.67,87.26Z"/><path class="cls-7" d="M214.16,94.6a2.15,2.15,0,1,1-4.29,0,2.15,2.15,0,0,1,4.29,0Z"/><path class="cls-8" d="M150.4,111.15s-11.2,18.55-40.69,8.67A43.7,43.7,0,0,0,150.4,111.15Z"/><polygon class="cls-8" points="152.78 75.3 152.71 86.36 108.54 86.08 150.57 84.27 152.78 75.3"/><polygon class="cls-8" points="177.54 77.62 178.31 88.6 218.26 88.18 180.87 86.53 177.54 77.62"/><path class="cls-8" d="M180,111.33s16.13,28.27,36,1.92C216,113.25,199.18,136.08,180,111.33Z"/><path class="cls-6" d="M208.22,56.86s17.66-.44,22.45,10.51c0,0-12.39-8.88-22.83-8.78,0,0,15.57,2.2,18.64,12.69,0,0-10.66-12.57-20.33-11Z"/><path class="cls-6" d="M130.78,49s-8.06-15.72-20-14.69c0,0,13.73,6.64,18.64,15.85,0,0-9.39-12.61-20.07-10.29,0,0,16.14,3.34,19.42,12.56Z"/><path class="cls-9" d="M157.34,127.56,87.42,105.2S124.65,120.4,157.34,127.56Z"/><path class="cls-9" d="M157.34,127.56,81,124S122.38,129.38,157.34,127.56Z"/><path class="cls-9" d="M152.71,128.85,82.5,142.34S121.08,138.2,152.71,128.85Z"/><path class="cls-9" d="M173.9,122.83l67.83-28S205.89,113,173.9,122.83Z"/><path class="cls-9" d="M173.9,122.83,249.71,113S208.9,121.76,173.9,122.83Z"/><path class="cls-9" d="M178.62,123.73l71.09,7.65S210.92,130.44,178.62,123.73Z"/><path class="cls-4" d="M218.36,133.42s-23.14,2-39.32,33.53C179,167,187.66,130.23,218.36,133.42Z"/><path class="cls-9" d="M217.89,230.94S146,146.79,73.42,237.05C73.42,237.05,131.18,157.1,217.89,230.94Z"/><path class="cls-2" d="M29.7,259.27s41.86,39.37,34.6,53.34c-13.44,25.83-46,6.31-57.19-16.67C-7,267-.4,231.87,29.7,259.27Z"/><path class="cls-2" d="M238.77,206.82s-44.83-6.45-52.27-36.73c-4-16.43,17.75-35.57,31.47-35.37s.11,16.94,0,29.06c0,1.78,13.35,6,13.35,6S237,193.52,238.77,206.82Z"/><path class="cls-5" d="M44.6,295.28s-11.86-21.87-20.14-12.69,4.35,27.28,16.14,28S44.6,295.28,44.6,295.28Z"/><path class="cls-5" d="M30.14,267.08s4.25,6.84-.24,7.86C24.16,276.25,24.18,259.82,30.14,267.08Z"/><path class="cls-5" d="M19.75,271s6,5.36,2,7.61C16.6,281.48,12,265.7,19.75,271Z"/><path class="cls-5" d="M12.28,279.55s7.7,2.35,5,6.08C13.81,290.4,3,278,12.28,279.55Z"/><path class="cls-2" d="M252.68,259.27s-41.87,39.37-34.6,53.34c13.44,25.83,45.95,6.31,57.18-16.67C289.39,267,282.77,231.87,252.68,259.27Z"/><path class="cls-5" d="M237.77,295.28s11.86-21.87,20.15-12.69-4.35,27.28-16.15,28S237.77,295.28,237.77,295.28Z"/><path class="cls-5" d="M252.23,267.08s-4.25,6.84.24,7.86C258.22,276.25,258.2,259.82,252.23,267.08Z"/><path class="cls-5" d="M262.62,271s-6,5.36-2,7.61C265.78,281.48,270.39,265.7,262.62,271Z"/><path class="cls-5" d="M270.09,279.55s-7.7,2.35-5,6.08C268.56,290.4,279.36,278,270.09,279.55Z"/><path class="cls-10" d="M159.15,120.3s10.46-5.56,13.26-.43c0,0-4.69,11.54-5.92,11.46S159.15,120.3,159.15,120.3Z"/><path class="cls-8" d="M145.43,61.28s-11.35,5.09-27.32,3.41C118.11,64.69,133.89,69.82,145.43,61.28Z"/><path class="cls-8" d="M208.89,65.83s-12.43-.28-26.13-8.66C182.76,57.17,194.8,68.58,208.89,65.83Z"/><path class="cls-8" d="M213.77,137.79l-9.92,15.59S214.37,148.13,213.77,137.79Z"/><path class="cls-8" d="M220.67,140.45,210.75,156S221.27,150.79,220.67,140.45Z"/><polygon class="cls-11" points="69.35 197.98 203.27 173.03 218.36 259.41 83.61 284.72 69.35 197.98"/><path class="cls-7" d="M88.43,251.69l12-49.61,11.77-1.94,7.62,46.39,5.1-.84,1.62,9.81-5.1.83,2,12.46-10.59,1.74-2-12.46-20.79,3.42Zm20.79-3.42L105,222.48l-6.64,27.58Z"/><path class="cls-7" d="M124,215.12c-1.81-11,3-18.21,13.54-20s17.41,3.58,19.21,14.57l5.87,35.69c1.8,11-2.95,18.21-13.54,19.95s-17.41-3.58-19.21-14.57Zm16.77,34.61c.8,4.9,3.27,6.41,6.7,5.85s5.28-2.79,4.47-7.69l-6.09-37.07c-.81-4.9-3.27-6.41-6.7-5.85s-5.28,2.79-4.48,7.69Z"/><path class="cls-7" d="M166.1,238.92l12-49.61,11.77-1.93,7.62,46.38,5.1-.84,1.61,9.81-5.1.84,2,12.45-10.59,1.74-2.05-12.45-20.79,3.42Zm20.79-3.42-4.24-25.79L176,237.29Z"/><path class="cls-12" d="M72.77,218.76S90.35,234.15,110,208c0,0-21.57,14.42-38.62,2.41Z"/><path class="cls-2" d="M66.82,147.25s9.28,23.59,15.68,33.28,34.6,19.06,28.16,26.87c0,0-18.09,19.76-45.2-1-12.73-9.74-19.22-23.74-19.22-23.74S51.43,167,66.82,147.25Z"/><path class="cls-8" d="M86.14,204.26l16.75,7.8S96.31,202.32,86.14,204.26Z"/><path class="cls-8" d="M90.81,199l16.75,7.79S101,197.08,90.81,199Z"/><polygon class="cls-13" points="218.36 259.41 84.46 289.14 69.35 216.71 72.34 216.16 86.14 284.25 218.36 259.41"/></svg>