<svg xmlns="http://www.w3.org/2000/svg" xmlns:xlink="http://www.w3.org/1999/xlink">
	<symbol id="viber" viewBox="0 0 30 30">
		<path d="M15 0C6.716 0 0 6.715 0 15c0 8.284 6.716 15 15 15 8.284 0 15-6.716 15-15 0-8.285-6.716-15-15-15zm-.702 7.924c.122-.112.208-.127.632-.114.22.007.545.033.722.054a7.24 7.24 0 0 1 2.409.715c.78.382 1.278.743 1.938 1.4.618.621.961 1.092 1.325 1.822.507 1.018.795 2.23.845 3.562.018.455.005.556-.099.686-.198.252-.631.21-.78-.072-.046-.094-.06-.174-.075-.538a9.428 9.428 0 0 0-.143-1.351c-.306-1.692-1.117-3.043-2.411-4.012-1.079-.811-2.193-1.206-3.653-1.292-.494-.028-.58-.047-.692-.132-.208-.164-.218-.549-.018-.728zm3.097 3.347c-.522-.312-1.294-.543-1.998-.6-.255-.021-.395-.073-.49-.185a.473.473 0 0 1-.04-.587c.135-.21.343-.244.964-.15 1.577.23 2.799.963 3.599 2.153.45.67.73 1.458.826 2.302.034.31.034.874-.002.967a.591.591 0 0 1-.237.257c-.101.052-.317.047-.436-.015-.2-.102-.26-.263-.26-.7 0-.672-.174-1.382-.476-1.932a3.95 3.95 0 0 0-1.45-1.51zm.879 3.464c-.154.14-.437.145-.608.013-.125-.094-.164-.193-.193-.46-.033-.356-.096-.606-.202-.837-.229-.491-.632-.746-1.313-.829-.32-.039-.415-.075-.52-.197a.484.484 0 0 1 .146-.728c.099-.05.14-.055.359-.042.135.008.335.032.442.055.511.11.904.304 1.239.618.431.408.668.902.772 1.612.07.462.041.644-.122.795zm3.882 6.826c-.193.496-.941 1.426-1.463 1.824-.473.358-.808.496-1.25.517-.364.018-.515-.013-.98-.205-3.648-1.505-6.56-3.75-8.873-6.834-1.209-1.611-2.128-3.282-2.757-5.015-.367-1.011-.385-1.45-.083-1.967.13-.219.683-.759 1.086-1.06.67-.5.98-.684 1.226-.736.17-.036.463-.008.65.06.09.031.231.104.312.156.493.327 1.868 2.086 2.317 2.965.258.501.343.873.263 1.148-.083.296-.221.452-.837.949-.247.2-.478.405-.514.46-.094.135-.17.4-.17.587.003.434.284 1.221.653 1.827.286.47.798 1.073 1.304 1.535.595.546 1.12.917 1.713 1.211.761.38 1.226.476 1.567.317a1.26 1.26 0 0 0 .205-.114c.026-.024.226-.268.444-.538.421-.53.517-.616.806-.715.366-.124.74-.09 1.117.102.286.148.91.535 1.312.816.53.371 1.663 1.296 1.817 1.48.27.333.317.76.135 1.23z"/>
	</symbol>

	<symbol id="messenger" viewBox="0 0 30 30">
		<ellipse cx="15" cy="15.165" rx="15" ry="14.835"/>
        <path fill="white" d="M15 8.366c-3.797 0-6.874 2.819-6.874 6.295 0 1.981 1 3.748 2.562 4.903v2.4l2.34-1.271a7.444 7.444 0 0 0 1.972.263c3.796 0 6.874-2.818 6.874-6.295 0-3.476-3.078-6.295-6.874-6.295zm.683 8.478l-1.75-1.847-3.416 1.847 3.757-3.945 1.793 1.846L19.44 12.9l-3.757 3.945z"/>
	</symbol>

	<symbol id="vk" viewBox="0 0 30 30">
		<circle cx="15" cy="15" r="15" />
        <path fill="#FFF" d="M12.907 11.594a.7.7 0 0 1 .363-.393c.311-.159.646-.207.986-.2.483.01.965.043 1.448.064.217.01.432.02.638.105.306.129.468.371.476.707.006.273-.031.546-.04.82-.02.584-.044 1.168-.042 1.75 0 .185.075.37.121.552.014.052.047.099.077.144.116.174.156.172.322.063.307-.202.534-.48.742-.787.282-.415.533-.847.742-1.305.208-.457.417-.914.612-1.377.097-.232.247-.33.487-.328.906.006 1.811.005 2.716.001a.442.442 0 0 1 .433.554c-.07.314-.205.594-.365.864-.45.759-.948 1.481-1.517 2.15-.2.235-.38.485-.473.79-.1.333-.037.624.201.872.421.437.854.863 1.264 1.311.242.267.457.561.67.854.136.187.224.402.199.648-.027.274-.16.416-.424.43-.51.028-1.022.049-1.532.073-.297.014-.594.03-.891.043-.238.01-.449-.08-.65-.2-.32-.191-.588-.451-.851-.716a4.833 4.833 0 0 1-.73-.9c-.128-.214-.488-.33-.714-.241-.175.068-.259.216-.277.4-.03.305-.045.612-.073.916-.033.376-.26.609-.618.66a6.212 6.212 0 0 1-2.108-.081c-.512-.105-.954-.362-1.376-.673-.577-.425-1.067-.945-1.526-1.496a9.807 9.807 0 0 1-.652-.916c-.654-1-1.272-2.024-1.814-3.095-.26-.514-.52-1.028-.656-1.596-.03-.128-.047-.26-.072-.39-.012-.063.01-.111.067-.13.147-.047.294-.118.444-.124.48-.021.96-.018 1.44-.021.207-.001.415.021.622.01.279-.016.465.118.585.36.12.243.223.496.337.742.409.886.852 1.75 1.427 2.533.085.115.212.207.336.28.147.089.276.042.366-.108a1.18 1.18 0 0 0 .16-.59c.008-.59.025-1.18.019-1.77-.007-.61-.298-1.015-.848-1.234l-.051-.025z"/>
	</symbol>

	<symbol id="vk2" viewBox="0 0 30 30">
		<circle cx="15" cy="15" r="15" />
        <path fill="#434b58" d="M12.907 11.594a.7.7 0 0 1 .363-.393c.311-.159.646-.207.986-.2.483.01.965.043 1.448.064.217.01.432.02.638.105.306.129.468.371.476.707.006.273-.031.546-.04.82-.02.584-.044 1.168-.042 1.75 0 .185.075.37.121.552.014.052.047.099.077.144.116.174.156.172.322.063.307-.202.534-.48.742-.787.282-.415.533-.847.742-1.305.208-.457.417-.914.612-1.377.097-.232.247-.33.487-.328.906.006 1.811.005 2.716.001a.442.442 0 0 1 .433.554c-.07.314-.205.594-.365.864-.45.759-.948 1.481-1.517 2.15-.2.235-.38.485-.473.79-.1.333-.037.624.201.872.421.437.854.863 1.264 1.311.242.267.457.561.67.854.136.187.224.402.199.648-.027.274-.16.416-.424.43-.51.028-1.022.049-1.532.073-.297.014-.594.03-.891.043-.238.01-.449-.08-.65-.2-.32-.191-.588-.451-.851-.716a4.833 4.833 0 0 1-.73-.9c-.128-.214-.488-.33-.714-.241-.175.068-.259.216-.277.4-.03.305-.045.612-.073.916-.033.376-.26.609-.618.66a6.212 6.212 0 0 1-2.108-.081c-.512-.105-.954-.362-1.376-.673-.577-.425-1.067-.945-1.526-1.496a9.807 9.807 0 0 1-.652-.916c-.654-1-1.272-2.024-1.814-3.095-.26-.514-.52-1.028-.656-1.596-.03-.128-.047-.26-.072-.39-.012-.063.01-.111.067-.13.147-.047.294-.118.444-.124.48-.021.96-.018 1.44-.021.207-.001.415.021.622.01.279-.016.465.118.585.36.12.243.223.496.337.742.409.886.852 1.75 1.427 2.533.085.115.212.207.336.28.147.089.276.042.366-.108a1.18 1.18 0 0 0 .16-.59c.008-.59.025-1.18.019-1.77-.007-.61-.298-1.015-.848-1.234l-.051-.025z"/>
	</symbol>

	<symbol id="wechat" viewBox="0 0 30 30">
		<circle cx="15" cy="15" r="15"/>
        <g transform="translate(8 8)" fill="white">
            <path d="M9.5 13.444c-2.73 0-4.95-1.993-4.95-4.444 0-2.45 2.22-4.444 4.95-4.444S14.45 6.549 14.45 9c0 2.45-2.22 4.444-4.95 4.444z"/>
            <path d="M9.5 5.111c2.43 0 4.4 1.741 4.4 3.889 0 2.148-1.97 3.889-4.4 3.889-2.43 0-4.4-1.741-4.4-3.889 0-2.148 1.97-3.889 4.4-3.889zM9.5 4C6.467 4 4 6.243 4 9s2.467 5 5.5 5S15 11.757 15 9s-2.467-5-5.5-5z"/>
            <circle cx="1.5" cy="11.5" r="1" />
            <path d="M4.384 9.48c0-2.767 2.458-5.018 5.48-5.018.757 0 1.479.141 2.136.397C11.619 2.12 9.093 0 6.028 0 2.698 0 0 2.497 0 5.577 0 8.215 1.982 10.42 4.642 11a4.62 4.62 0 0 1-.258-1.52z"/>
            <path d="M14 14.572C12.685 13.28 13.167 12 13.167 12L10 13.002s1.657 1.863 3.808 1.998l.192-.428z"/>
            <circle cx="14.417" cy="14.417" r="1" />
            <path d="M3.713 9.003c0-.561.104-1.098.287-1.602L1.324 6S3.272 8.72 1 10.522l.125.478c1.087 0 1.989-.567 2.661-1.208a4.68 4.68 0 0 1-.073-.789z"/>
        </g>
	</symbol>

	<symbol id="user" viewBox="0 0 2500 2500">
		<circle cx="1250" cy="1250" r="1250"/>
		<path fill="white" d="M1890 1700q0 109-62.5 187t-150.5 78h-854q-88 0-150.5-78t-62.5-187q0-85 8.5-160.5t31.5-152 58.5-131 94-89 134.5-34.5q131 128 313 128t313-128q76 0 134.5 34.5t94 89 58.5 131 31.5 152 8.5 160.5zm-256-887q0 159-112.5 271.5t-271.5 112.5-271.5-112.5-112.5-271.5 112.5-271.5 271.5-112.5 271.5 112.5 112.5 271.5z"/>
	</symbol>

	<symbol id="facebook" viewBox="0 0 24 24">
		<path d="M14.984 12.422h-1.952v6.959h-2.893v-6.959H8.764V9.963h1.375v-1.59c0-1.14.541-2.92 2.92-2.92l2.143.008v2.387h-1.556c-.253 0-.613.127-.613.67v1.446h2.204l-.253 2.458zM12 0C5.383 0 0 5.383 0 12c0 6.616 5.383 12 12 12 6.616 0 12-5.384 12-12 0-6.617-5.383-12-12-12z"/>
	</symbol>

	<symbol id="adobe-reader" viewBox="0 0 24 24">
		<path d="M23.598 15.368c-.71-.76-2.164-1.197-4.224-1.197-1.1 0-2.375.11-3.76.37-.782-.77-1.562-1.67-2.307-2.72-.53-.74-.993-1.52-1.42-2.29.813-2.54 1.206-4.61 1.206-6.1 0-1.672-.603-3.416-2.34-3.416-.533 0-1.066.325-1.35.8-.783 1.408-.43 4.493.917 7.54-.503 1.52-1.035 2.973-1.7 4.605-.578 1.376-1.244 2.794-1.923 4.096C2.793 18.64.267 20.49.03 21.94c-.104.547.074 1.05.457 1.45.133.11.636.545 1.48.545 2.59 0 5.32-4.28 6.707-6.86 1.065-.36 2.13-.687 3.193-1.015 1.168-.323 2.34-.583 3.405-.765 2.735 2.504 5.146 2.9 6.358 2.9 1.492 0 2.024-.617 2.203-1.122.28-.65.07-1.37-.252-1.74l.02.04zm-1.385 1.054c-.104.544-.638.906-1.386.906-.21 0-.39-.037-.603-.072-1.36-.325-2.633-1.016-3.903-2.106 1.25-.214 2.31-.25 2.98-.25.74 0 1.38.032 1.81.144.49.106 1.27.435 1.095 1.38h.02zm-7.523-1.707c-.92.19-1.914.414-2.944.693-.816.223-1.666.474-2.52.77.463-.902.854-1.774 1.208-2.603.428-1.02.78-2.07 1.135-3.046.35.61.74 1.23 1.13 1.78.64.87 1.31 1.7 1.98 2.42v-.02zM10.04 1.23c.145-.29.43-.436.678-.436.745 0 .887.868.887 1.56 0 1.168-.354 2.942-.96 4.967-1.062-2.82-1.135-5.18-.603-6.09zM6.138 18.127C4.328 21.17 2.59 23.06 1.525 23.06c-.21 0-.387-.075-.53-.183-.214-.216-.32-.472-.248-.76.213-1.09 2.236-2.613 5.392-3.99z"/>
	</symbol>

	<symbol id="play" viewBox="0 0 60 60">
        <path transform="translate(-929 -480)" d="M953 523.5v-27l18 13.5-18 13.5zm6-43.5c-16.5 0-30 13.5-30 30s13.5 30 30 30 30-13.5 30-30-13.5-30-30-30z"/>
	</symbol>

	<symbol id="point" viewBox="0 0 12 17">
		<path d="M647.24 7412.92l-.27-.4c-.2-.3-4.97-7.35-4.97-10.19a5.3 5.3 0 0 1 5.24-5.33 5.3 5.3 0 0 1 5.24 5.33c0 2.84-4.77 9.9-4.97 10.2z" transform="translate(-641 -7396)"/>
        <path d="M647.25 7404.67a2.32 2.32 0 0 1-2.3-2.33 2.32 2.32 0 0 1 2.3-2.33c1.26 0 2.29 1.04 2.29 2.33a2.32 2.32 0 0 1-2.3 2.33z" transform="translate(-641 -7396)"/>
	</symbol>

	<symbol id="phone" viewBox="0 0 16 16">
		<path d="M642.8 7444.07a12.1 12.1 0 0 0 5.13 5.13l1.71-1.71c.24-.23.55-.31.78-.16.86.31 1.8.47 2.8.47.47 0 .78.31.78.78v2.64c0 .47-.31.78-.78.78a13.21 13.21 0 0 1-13.22-13.22c0-.47.31-.78.78-.78h2.72c.47 0 .78.31.78.78 0 .93.15 1.86.46 2.8.08.23 0 .54-.15.78l-1.79 1.7z" transform="translate(-639 -7437)"/>
	</symbol>

	<symbol id="envelope" viewBox="0 0 18 11">
		<path id="mbpwa" d="M639 7520v-9h16v9z" transform="translate(-638 -7510)"/>
        <path id="mbpwb" d="M639 7511l8 5 8-5" transform="translate(-638 -7510)"/>
	</symbol>

	<symbol id="insta" viewBox="0 0 20 20">
		<path transform="translate(-1522 -7595)" d="M1536.2 7602.75v-1.81h-1.81v1.82z"/>
        <path transform="translate(-1522 -7595)" d="M1532.1 7606.95a1.89 1.89 0 1 0 0-3.77 1.89 1.89 0 0 0 0 3.77z"/>
        <path transform="translate(-1522 -7595)" d="M1537.45 7603.96v4.38c0 1.14-.93 2.06-2.07 2.06h-6.57a2.07 2.07 0 0 1-2.07-2.06v-6.57c0-1.14.92-2.06 2.07-2.06h6.57c1.14 0 2.07.92 2.07 2.06zm-5.31-8.9a9.85 9.85 0 1 0 0 19.7 9.85 9.85 0 0 0 0-19.7z"/>
        <path transform="translate(-1522 -7595)" d="M1535.02 7605.06a2.93 2.93 0 1 1-5.64-1.1h-1.6v4.38c0 .57.46 1.03 1.03 1.03h6.57c.56 0 1.02-.46 1.02-1.03v-4.38h-1.6c.14.34.22.71.22 1.1z"/>
	</symbol>

	<symbol id="views" viewBox="0 0 20 22">
		<g transform="translate(-341 -795)" fill="#7a7a7a">
	        <path d="M351 810.36a4.7 4.7 0 0 1 0-9.38 4.7 4.7 0 0 1 0 9.38zm-8.84-4.32a.6.6 0 0 1 0-.74c1.24-1.6 2.84-2.8 4.65-3.52a5.7 5.7 0 0 0 0 7.78 11.14 11.14 0 0 1-4.65-3.52zm18.48-1.37a.5.5 0 0 0-.8.63.6.6 0 0 1 0 .74 11.18 11.18 0 0 1-4.67 3.52 5.68 5.68 0 0 0 .01-7.77 11.17 11.17 0 0 1 3.24 2 .5.5 0 0 0 .68-.76 12.14 12.14 0 0 0-8.1-3.07c-3.8 0-7.31 1.72-9.65 4.71-.45.59-.45 1.4 0 2 2.34 2.99 5.85 4.7 9.65 4.7 3.8 0 7.3-1.71 9.64-4.7.46-.6.46-1.41 0-2z"/>
	        <path d="M351 806.81a1.14 1.14 0 1 1 0-2.28 1.14 1.14 0 0 1 0 2.28zm0-3.3a2.16 2.16 0 1 0 0 4.32 2.16 2.16 0 0 0 0-4.32z"/>
	        <path d="M351 795a.5.5 0 0 0-.51.5v1.92a.5.5 0 1 0 1.02 0v-1.91a.5.5 0 0 0-.51-.51z"/>
	        <path d="M351 813.41a.5.5 0 0 0-.51.5v1.92a.5.5 0 1 0 1.02 0v-1.91a.5.5 0 0 0-.51-.51z"/>
	        <path d="M358.54 798.13a.5.5 0 0 0-.72 0l-.95.95a.5.5 0 0 0 .72.72l.95-.95a.5.5 0 0 0 0-.72z"/>
	        <path d="M345.13 811.54a.5.5 0 0 0-.72 0l-.95.95a.5.5 0 0 0 .72.72l.95-.95a.5.5 0 0 0 0-.72z"/>
	        <path d="M345.13 799.08l-.95-.95a.5.5 0 0 0-.72.72l.95.95a.5.5 0 0 0 .72 0 .5.5 0 0 0 0-.72z"/>
	        <path d="M358.54 812.49l-.95-.95a.5.5 0 0 0-.72.72l.95.95a.5.5 0 0 0 .72 0 .5.5 0 0 0 0-.72z"/>
	    </g>
	</symbol>

	<symbol id="audio" viewBox="0 0 18 20">
		<path transform="translate(-1365 -935)" d="M1382.88 935.09a.36.36 0 0 0-.28-.09l-10.94 1.42a.35.35 0 0 0-.3.35v12.57a3.66 3.66 0 0 0-2.83-1.28c-1.95 0-3.53 1.42-3.53 3.18 0 1.75 1.58 3.17 3.53 3.17 1.95 0 3.53-1.42 3.53-3.17l-.01-.25v-10.3l10.24-1.33v6.45a3.66 3.66 0 0 0-2.82-1.28c-1.95 0-3.53 1.42-3.53 3.18 0 1.75 1.58 3.17 3.53 3.17 1.93 0 3.5-1.4 3.53-3.13V935.35c0-.1-.04-.2-.12-.26z"/>
	</symbol>

	<use xlink:href="#viber" width="30" height="30" x="0" y="0" />
	<use xlink:href="#messenger" width="30" height="30" x="40" y="0" />
	<use xlink:href="#vk" width="30" height="30" x="80" y="0" />
	<use xlink:href="#vk2" width="30" height="30" x="120" y="0" />
	<use xlink:href="#wechat" width="30" height="30" x="160" y="0" />
	<use xlink:href="#facebook" width="30" height="30" x="200" y="0" />
	<use xlink:href="#adobe-reader" width="24" height="24" x="240" y="0" />
	<use xlink:href="#play" width="60" height="60" x="0" y="40" />
	<use xlink:href="#point" width="12" height="17" x="80" y="40" stroke="#fe9023" fill="transparent"/>
	<use xlink:href="#phone" width="16" height="16" x="100" y="40" stroke="#fe9023" fill="transparent"/>
	<use xlink:href="#envelope" width="18" height="11" x="120" y="40" stroke="#fe9023" fill="transparent"/>
	<use xlink:href="#insta" width="20" height="20" x="140" y="40"/>
	<use xlink:href="#views" width="20" height="22" x="170" y="40"/>
	<use xlink:href="#audio" width="18" height="20" x="200" y="40"/>

	<view id="point-v" viewBox="80 40 12 17" />
	<view id="phone-v" viewBox="100 40 16 16" />
	<view id="envelope-v" viewBox="120 40 18 11" />
	<view id="views-v" viewBox="170 40 20 22" />
</svg>
