<svg xmlns="http://www.w3.org/2000/svg" xmlns:xlink="http://www.w3.org/1999/xlink">
    <symbol id="a" viewBox="0 0 74.59 74.59">
        <path d="M61.25 52.33l2.16-2.15-1.7-1.7-2.16 2.15-2.27-2.27a22.63 22.63 0 0 0 2.87-11.06v-1a12.51 12.51 0 0 0 9.68-12.22h-2.46a10.13 10.13 0 0 1-7.5 9.81A22.88 22.88 0 0 0 37.3 14.44c-.35 0-.68 0-1 .05a12.52 12.52 0 0 0-12.24-9.68v2.41a10.13 10.13 0 0 1 9.81 7.5A22.88 22.88 0 0 0 14.44 37.3c0 .34 0 .67.05 1a12.53 12.53 0 0 0-9.68 12.23h2.41a10.11 10.11 0 0 1 7.5-9.8A22.87 22.87 0 0 0 37.3 60.15a22.63 22.63 0 0 0 11.06-2.87l2.27 2.27-2.15 2.16 1.7 1.7 2.15-2.16 11.49 11.5a6.31 6.31 0 0 0 8.93-8.92zm-24-35.49a20.48 20.48 0 0 1 20.26 17.47l-2.38.4A18 18 0 0 0 37.3 19.25h-.19l-.39-2.39c.19.01.38-.02.58-.02zm0 4.82A15.64 15.64 0 1 1 21.66 37.3 15.66 15.66 0 0 1 37.3 21.66zM16.84 37.3a20.46 20.46 0 0 1 17.47-20.21l.4 2.37A18.06 18.06 0 0 0 19.25 37.3v.18l-2.39.4c.01-.2-.02-.39-.02-.58zM37.3 57.75a20.45 20.45 0 0 1-20.21-17.47l2.37-.39a18 18 0 0 0 35.88-2.59v-.19l2.39-.39v.58A20.48 20.48 0 0 1 37.3 57.75zM50.45 56A22.88 22.88 0 0 0 56 50.45l1.89 1.88-5.52 5.52zm17.84 16.19A3.85 3.85 0 0 1 65.53 71L54 59.55 59.55 54 71 65.53a3.85 3.85 0 0 1 1.15 2.76 3.91 3.91 0 0 1-3.86 3.9z"/>
        <path d="M63.76 21.66a10.83 10.83 0 1 0-10.82-10.83 10.84 10.84 0 0 0 10.82 10.83zm3.61-3.23a8.36 8.36 0 0 1-7.22 0v-1.59a3.61 3.61 0 0 1 7.22 0zm-6-10a2.41 2.41 0 1 1 2.4 2.41 2.4 2.4 0 0 1-2.41-2.42zm2.4-6a8.41 8.41 0 0 1 6 14.31 6 6 0 0 0-2.64-4.86 4.82 4.82 0 1 0-6.73 0 6 6 0 0 0-2.64 4.86 8.41 8.41 0 0 1 6-14.31zM10.83 21.66A10.83 10.83 0 1 0 0 10.83a10.84 10.84 0 0 0 10.83 10.83zm3.61-3.23a8.36 8.36 0 0 1-7.22 0v-1.59a3.61 3.61 0 0 1 7.22 0zm-6-10a2.41 2.41 0 1 1 2.41 2.41 2.4 2.4 0 0 1-2.43-2.42zm2.41-6a8.41 8.41 0 0 1 6 14.31 6 6 0 0 0-2.64-4.86 4.81 4.81 0 1 0-6.72 0 6 6 0 0 0-2.65 4.86 8.41 8.41 0 0 1 6-14.31zm-.02 50.51a10.83 10.83 0 1 0 10.83 10.82 10.84 10.84 0 0 0-10.83-10.82zm3.61 18.42a8.27 8.27 0 0 1-7.22 0v-1.58a3.61 3.61 0 0 1 7.22 0zm-6-10a2.41 2.41 0 1 1 2.41 2.4 2.41 2.41 0 0 1-2.43-2.4zm8.41 8.3a6 6 0 0 0-2.64-4.87 4.81 4.81 0 1 0-6.72 0 6 6 0 0 0-2.65 4.87 8.43 8.43 0 1 1 12 0zm7.21-34.77v8.42h26.47V30.08h-7.22v10.83h-2.4V25.27h-7.22v15.64h-2.41v-6zm21.66-2.41h2.4v8.43h-2.4zm-9.63-4.81h2.41v13.24h-2.41zm-7.22 13.24h-2.4V37.3h2.4z"/>
    </symbol>
    <symbol id="b" viewBox="0 0 85.13 75.31">
        <path d="M71.57 17.89v21.17a5.32 5.32 0 0 1 2.21 1.86A1.15 1.15 0 0 1 74 41V17.89a6 6 0 0 0-6-6h-7.17V0H13.12v11.93H6a6 6 0 0 0-6 6v38.13a6 6 0 0 0 6 6h22.63v2.52L7.16 66.92v7h52.45a62.69 62.69 0 0 1-6.47-2.38h-7.81v-4.6l2.23.24A15.8 15.8 0 0 1 46.17 65l-.17-.4-.63-.07V63.2a18.36 18.36 0 0 1-1-3.56H6a3.58 3.58 0 0 1-3.57-3.58v-1.19H44a17.58 17.58 0 0 1 .32-2.39H2.39V17.89A3.58 3.58 0 0 1 6 14.31h7.16V40a7.72 7.72 0 0 0 7.72 7.72h25.24c.13-.23.25-.46.4-.69a17.72 17.72 0 0 1 1.21-1.69H20.84A5.34 5.34 0 0 1 15.51 40V14.31h42.94v23.43a13.46 13.46 0 0 1 2.38-.5V14.31H68a3.59 3.59 0 0 1 3.57 3.58zM28.63 71.57H9.54v-2.51l19.09-2.12zM31 62h11.94v9.55H31zM15.51 3.35l6.09 3.81L15.51 11zm7.15 8.58h-4.19l4.19-2.62zm26.24 0H25.05V6.5l-6.58-4.11h37L48.9 6.5zm2.39 0V9.31l4.19 2.62zm7.16-1l-6.1-3.81 6.1-3.81z"/>
        <path d="M25.1 23.65a11.91 11.91 0 0 0 23.75 0 3.57 3.57 0 1 0-2.38 0 9.54 9.54 0 0 1-19 0 3.59 3.59 0 1 0-2.38 0zm22.61-4.57a1.2 1.2 0 1 1-1.19 1.2 1.19 1.19 0 0 1 1.19-1.2zm-21.47 0a1.2 1.2 0 1 1-1.19 1.2 1.19 1.19 0 0 1 1.19-1.2zm36.98-2.38h2.39v2.39h-2.39zm0 4.77h2.39v2.39h-2.39zm0 4.77h2.39v2.39h-2.39zM8.35 16.7h2.39v2.39H8.35zm0 4.77h2.39v2.39H8.35zm0 4.77h2.39v2.39H8.35zm54.04 10a19.32 19.32 0 1 0 19.32 19.31 19.33 19.33 0 0 0-19.32-19.31zm-.66 37.28a18 18 0 0 1-17.3-17.3h5.32a12.68 12.68 0 0 0 12 12zm0-6.66a11.35 11.35 0 0 1-10.65-10.64h5.6a5.76 5.76 0 0 0 5 5zm0-6.94a4.42 4.42 0 0 1-3.7-3.7h3.7zm-3.7-5a4.41 4.41 0 0 1 3.7-3.7v3.7zm3.7-5a5.78 5.78 0 0 0-5 5h-5.6a11.36 11.36 0 0 1 10.6-10.68zm0-6.93a12.66 12.66 0 0 0-12 12h-5.3a18 18 0 0 1 17.3-17.3zm1.33-5.32a18 18 0 0 1 17.29 17.3H75a12.68 12.68 0 0 0-12-12zm3.7 18.63a4.44 4.44 0 0 1-3.7 3.7v-3.7zm-3.7-1.33v-3.7a4.42 4.42 0 0 1 3.7 3.7zm5 1.33h5.6a11.33 11.33 0 0 1-10.6 10.56v-5.6a5.74 5.74 0 0 0 5.04-5.04zm-5-12A11.35 11.35 0 0 1 73.7 54.89h-5.6a5.76 5.76 0 0 0-5-5zm0 29.27V68.2a12.69 12.69 0 0 0 12-12h5.31a18 18 0 0 1-17.31 17.31z"/>
        <path d="M62.39 75.31a19.76 19.76 0 1 1 19.76-19.76 19.78 19.78 0 0 1-19.76 19.76zm0-38.62a18.87 18.87 0 1 0 18.87 18.86 18.88 18.88 0 0 0-18.87-18.86zM62.17 74h-.46A18.49 18.49 0 0 1 44 56.24v-.47h6.2v.43a12.18 12.18 0 0 0 11.55 11.55h.42zM44.9 56.67a17.61 17.61 0 0 0 16.38 16.38v-4.43a13.07 13.07 0 0 1-12-12zM62.61 74v-6.2h.43a12.16 12.16 0 0 0 11.55-11.6v-.43h6.2v.47A18.48 18.48 0 0 1 63.08 74zm.9-5.36V73a17.58 17.58 0 0 0 16.37-16.33h-4.42a13.08 13.08 0 0 1-11.95 11.95zm-.9-1.28v-6.49h.4a5.35 5.35 0 0 0 4.65-4.65v-.4h6.47v.48a11.77 11.77 0 0 1-11.04 11.01zm.9-5.69v4.73a10.88 10.88 0 0 0 9.71-9.71h-4.73a6.17 6.17 0 0 1-4.98 4.96zm-1.34 5.69h-.47a11.76 11.76 0 0 1-11.06-11.11v-.48h6.47l.05.4a5.34 5.34 0 0 0 4.65 4.65h.39zm-10.6-10.69a10.87 10.87 0 0 0 9.71 9.71v-4.73a6.16 6.16 0 0 1-5-5zm11 3.77v-4.67h4.67l-.08.52a4.9 4.9 0 0 1-4.07 4.07zm.9-3.77v2.69a4 4 0 0 0 2.69-2.69zm-1.34 3.77l-.51-.08a4.84 4.84 0 0 1-4.07-4.07l-.08-.52h4.66zm-3.58-3.77a4 4 0 0 0 2.69 2.69v-2.69zm22.23-1.34h-6.2v-.42A12.18 12.18 0 0 0 63 43.35h-.43v-6.2h.47A18.49 18.49 0 0 1 80.8 54.87zm-5.36-.89h4.42a17.6 17.6 0 0 0-16.33-16.38v4.43a13.08 13.08 0 0 1 11.95 11.95zm-8.18.89h-4.63v-4.66l.52.08a4.9 4.9 0 0 1 4.07 4.07zm-3.77-.89h2.73a4 4 0 0 0-2.69-2.69zm-1.34.89h-4.62l.08-.51a4.89 4.89 0 0 1 4.07-4.07l.51-.08zm-3.58-.89h2.69v-2.69a4 4 0 0 0-2.65 2.69zm-1.51.89h-6.43v-.47A11.76 11.76 0 0 1 61.7 43.8h.47v6.47h-.39a5.33 5.33 0 0 0-4.65 4.65zm-5.51-.89h4.77a6.15 6.15 0 0 1 5-5v-4.71a10.86 10.86 0 0 0-9.73 9.71zm-1.4.89H44v-.46a18.5 18.5 0 0 1 17.71-17.73h.46v6.2h-.42a12.2 12.2 0 0 0-11.56 11.57zm-5.27-.89h4.43a13.06 13.06 0 0 1 12-11.95v-4.43A17.61 17.61 0 0 0 44.9 54.44zm29.27.89H67.7v-.39a5.34 5.34 0 0 0-4.7-4.65h-.4v-6.52h.47a11.78 11.78 0 0 1 11.08 11.09zm-10.62-5.87a6.16 6.16 0 0 1 5 5h4.73a10.87 10.87 0 0 0-9.71-9.71z"/>
    </symbol>
    <symbol id="c" viewBox="0 0 73 73">
        <path d="M72.58 13.39l-13-13a1.42 1.42 0 0 0-1-.42H16.25A4.28 4.28 0 0 0 12 4.28V7A18.85 18.85 0 0 0 0 24.54 1.43 1.43 0 0 0 1.43 26h17.4a1.43 1.43 0 0 0 1.43-1.42V7.13a1.43 1.43 0 0 0-1.43-1.43 18.85 18.85 0 0 0-4 .43V4.28a1.43 1.43 0 0 1 1.42-1.43h40.92v8.7a4.28 4.28 0 0 0 4.28 4.28h8.7v52.89a1.43 1.43 0 0 1-1.43 1.43H16.25a1.43 1.43 0 0 1-1.42-1.43V56.51a1.43 1.43 0 1 0-2.85 0v12.21A4.28 4.28 0 0 0 16.25 73h52.47A4.28 4.28 0 0 0 73 68.72V14.4a1.42 1.42 0 0 0-.42-1.01zM17.41 8.62v14.49H2.91a16 16 0 0 1 14.5-14.49zm44 4.35A1.41 1.41 0 0 1 60 11.55V4.87l8.1 8.1z"/>
        <path d="M14.41 50.32a1.41 1.41 0 0 0-1-.42 1.44 1.44 0 0 0-1 .42 1.46 1.46 0 0 0-.41 1 1.4 1.4 0 0 0 1.42 1.42 1.42 1.42 0 0 0 1.43-1.42 1.42 1.42 0 0 0-.44-1zm9.53-39.51a1.43 1.43 0 0 0-1.43 1.43v16h-16a1.43 1.43 0 0 0-1.42 1.42 18.83 18.83 0 1 0 18.85-18.85zm1.43 2.91a16 16 0 0 1 8.81 3.66l-8.81 8.82zm-1.43 31.91A16 16 0 0 1 8 31.07h15.94a1.43 1.43 0 0 0 1-.42L36.2 19.4a16 16 0 0 1-12.26 26.23zM62.46 45a4.28 4.28 0 0 0-4.28 4.28 4.18 4.18 0 0 0 .34 1.66l-8.21 8.22a4.21 4.21 0 0 0-1.87-.43 4.34 4.34 0 0 0-1.83.41l-5.45-5.46a4.19 4.19 0 0 0 .29-1.55 4.28 4.28 0 1 0-8.16 1.79l-5.23 5.23a4.21 4.21 0 0 0-1.84-.42 4.28 4.28 0 1 0 3.86 2.43l5.2-5.2a4.3 4.3 0 0 0 1.89.44 4.25 4.25 0 0 0 2.12-.56l5.3 5.31a4.13 4.13 0 0 0-.43 1.85 4.28 4.28 0 0 0 8.56 0 4.22 4.22 0 0 0-.41-1.81l8.14-8.14a4.28 4.28 0 1 0 2-8zM26.22 64.44a1.43 1.43 0 1 1 0-2.86 1.47 1.47 0 0 1 1 .4 1.42 1.42 0 0 1-1 2.42zm11-10.89a1.43 1.43 0 1 1 1.43-1.42 1.43 1.43 0 0 1-1.48 1.42zm11.22 10.88A1.43 1.43 0 1 1 49.86 63a1.43 1.43 0 0 1-1.42 1.43zm14-13.73a1.43 1.43 0 1 1 1.43-1.42 1.43 1.43 0 0 1-1.41 1.42zm-7.11-17.19h-7.52a1.43 1.43 0 1 0 0 2.85h7.52a1.43 1.43 0 1 0 0-2.85zm7.5.41a1.43 1.43 0 0 0-2.43 1 1.42 1.42 0 0 0 .42 1 1.41 1.41 0 0 0 2 0 1.42 1.42 0 0 0 .42-1 1.44 1.44 0 0 0-.41-1zm2.39-14.1H47.81a1.43 1.43 0 1 0 0 2.85h17.41a1.43 1.43 0 1 0 0-2.85zm0 6.84H47.81a1.43 1.43 0 1 0 0 2.85h17.41a1.43 1.43 0 1 0 0-2.85z"/>
    </symbol>
    <symbol id="d" viewBox="0 0 72.33 72.22">
        <path d="M32.85 40.89h5.32a1 1 0 0 0 1.09-1.09V22.53a1 1 0 0 0-1.09-1.09h-5.32a1 1 0 0 0-.76.32 1.19 1.19 0 0 0-.33.77V39.8a1 1 0 0 0 .33.76 1.17 1.17 0 0 0 .76.33zm1.09-17.28h3.15v15.11h-3.15z"/>
        <path d="M38.17 41.14h-5.32a1.41 1.41 0 0 1-.94-.4 1.24 1.24 0 0 1-.4-.94V22.53a1.44 1.44 0 0 1 .4-.94 1.24 1.24 0 0 1 .94-.4h5.32a1.28 1.28 0 0 1 1.34 1.34V39.8a1.28 1.28 0 0 1-1.34 1.34zm-5.32-19.45a.77.77 0 0 0-.59.25 1 1 0 0 0-.25.59V39.8a.77.77 0 0 0 .25.59 1 1 0 0 0 .59.25h5.32a.78.78 0 0 0 .83-.84V22.53a.78.78 0 0 0-.84-.84zM37.34 39h-3.65V23.36h3.65zm-3.15-.5h2.65V23.86h-2.65zm-12.43 2.39h5.33a1 1 0 0 0 .76-.33 1 1 0 0 0 .33-.76V26.65a1 1 0 0 0-.33-.76 1 1 0 0 0-.76-.32h-5.33a1 1 0 0 0-1.08 1.08V39.8a1.09 1.09 0 0 0 1.08 1.09zm1.09-13.15H26v11h-3.15z"/>
        <path d="M27.09 41.14h-5.32a1.34 1.34 0 0 1-1.34-1.34V26.65a1.28 1.28 0 0 1 1.34-1.33h5.32a1.37 1.37 0 0 1 1.34 1.33V39.8a1.26 1.26 0 0 1-.4.94 1.24 1.24 0 0 1-.94.4zm-5.32-15.32a.77.77 0 0 0-.84.83V39.8a.84.84 0 0 0 .84.84h5.32a.74.74 0 0 0 .58-.25.75.75 0 0 0 .26-.59V26.65a.72.72 0 0 0-.26-.58.74.74 0 0 0-.58-.25zM26.25 39H22.6V27.49h3.65zm-3.15-.5h2.65V28H23.1zm-12.74 2.39h5.32a1 1 0 0 0 .76-.33 1 1 0 0 0 .33-.76v-6.63a1 1 0 0 0-1.09-1.08h-5.32a1 1 0 0 0-1.09 1.08v6.63a1 1 0 0 0 .32.76 1.19 1.19 0 0 0 .77.33zm1.08-6.63h3.15v4.46h-3.15z"/>
        <path d="M15.68 41.14h-5.32a1.39 1.39 0 0 1-.94-.4A1.23 1.23 0 0 1 9 39.8v-6.63a1.28 1.28 0 0 1 1.34-1.33h5.32A1.28 1.28 0 0 1 17 33.17v6.63a1.28 1.28 0 0 1-.4.94 1.24 1.24 0 0 1-.92.4zm-5.32-8.8a.77.77 0 0 0-.84.83v6.63a.77.77 0 0 0 .25.59 1 1 0 0 0 .59.25h5.32a.74.74 0 0 0 .58-.25.75.75 0 0 0 .26-.59v-6.63a.77.77 0 0 0-.84-.83zM14.84 39h-3.65v-5h3.65zm-3.15-.5h2.65v-4h-2.65zm38 4.35l-1.52 1.84A9.37 9.37 0 0 0 53.28 47v1.5h1.3V47A5.44 5.44 0 0 0 58 45.78a3.71 3.71 0 0 0 1.3-2.93 3.16 3.16 0 0 0-1.08-2.72 7.94 7.94 0 0 0-3.48-1.52h-.11V34.7a5.7 5.7 0 0 1 2.93 1.19l1.31-2a8.42 8.42 0 0 0-4.35-1.53v-1.03h-1.3v1.08a5.41 5.41 0 0 0-3.26 1.2 3.72 3.72 0 0 0-1.31 2.93 3.31 3.31 0 0 0 1.09 2.72 8.68 8.68 0 0 0 3.48 1.52v4a10.37 10.37 0 0 1-3.53-1.93zm5-1.85a5.39 5.39 0 0 1 1.74.76 1.49 1.49 0 0 1 .43 1.24 1.73 1.73 0 0 1-.54 1.2 2.44 2.44 0 0 1-1.63.54zm-2.93-3.7a1.24 1.24 0 0 1-.44-1.08 1.78 1.78 0 0 1 .54-1.2 2.11 2.11 0 0 1 1.42-.54v3.58a2.69 2.69 0 0 1-1.52-.76z"/>
        <path d="M54.83 48.75H53v-1.56a9.62 9.62 0 0 1-5-2.31l-.19-.16 1.84-2.23.19.16a10.77 10.77 0 0 0 3.07 1.81V41a8.42 8.42 0 0 1-3.39-1.52 3.56 3.56 0 0 1-1.18-2.91 4 4 0 0 1 1.39-3.12 5.5 5.5 0 0 1 3.18-1.23v-1.14h1.8v1.1A8.64 8.64 0 0 1 59 33.73l.2.14-1.58 2.38-.22-.16A5.69 5.69 0 0 0 54.83 35v3.41a8.08 8.08 0 0 1 3.5 1.55 3.4 3.4 0 0 1 1.17 2.91A4 4 0 0 1 58.11 46a5.5 5.5 0 0 1-3.28 1.23zm-1.3-.5h.8v-1.51h.23a5.26 5.26 0 0 0 3.22-1.14A3.45 3.45 0 0 0 59 42.85a2.91 2.91 0 0 0-1-2.52 7.92 7.92 0 0 0-3.38-1.48h-.31v-4.43h.28a6 6 0 0 1 2.84 1.09l1-1.54a8.19 8.19 0 0 0-4-1.34h-.23v-1.05h-.8v1.06h-.23a5.23 5.23 0 0 0-3.12 1.14 3.43 3.43 0 0 0-1.22 2.74 3 3 0 0 0 1 2.53 8.44 8.44 0 0 0 3.38 1.47l.19.05v4.55l-.3-.12a10.3 10.3 0 0 1-3.37-1.85l-1.21 1.47a9.12 9.12 0 0 0 4.79 2.07h.22zm1.16-3.31h-.25v-4.26l.31.08a5.59 5.59 0 0 1 1.82.79 1.74 1.74 0 0 1 .54 1.4 2 2 0 0 1-.61 1.38 2.72 2.72 0 0 1-1.81.61zm.25-3.61v3.1a2.19 2.19 0 0 0 1.23-.43 1.5 1.5 0 0 0 .44-1 1.22 1.22 0 0 0-.36-1 4.76 4.76 0 0 0-1.31-.67zm-1.41-2.93l-.32-.1a3 3 0 0 1-1.63-.82 1.49 1.49 0 0 1-.51-1.26 2 2 0 0 1 .62-1.38 2.31 2.31 0 0 1 1.59-.61h.25zM53 34.75a1.72 1.72 0 0 0-1 .45 1.48 1.48 0 0 0-.47 1 1.09 1.09 0 0 0 .32.88l.07.07a2.26 2.26 0 0 0 1.07.56z"/>
        <path d="M72 3.84A3.62 3.62 0 0 0 68.38.25H3.84A3.62 3.62 0 0 0 .25 3.84v49.65a3.62 3.62 0 0 0 3.59 3.59h23.25l-3.37 6.3h-3.58a1 1 0 0 0-1.09 1.09v6.41A1 1 0 0 0 20.14 72h32.05a1 1 0 0 0 1.09-1.09v-6.44a1 1 0 0 0-1.09-1.09H48.6l-3.36-6.3h23.25a3.62 3.62 0 0 0 3.59-3.59C72 34.8 72 14.27 72 3.84zM3.84 2.42h64.54a1.44 1.44 0 0 1 1.41 1.42V43.5h-4.13a13.54 13.54 0 0 0 .55-3.59 12.6 12.6 0 0 0-3.59-8.8 18.65 18.65 0 0 0-1.52-1.3V14.38h3.69a1 1 0 0 0 1-.66 1 1 0 0 0-.21-1.19l-7.41-8.48a1.19 1.19 0 0 0-1.63 0l-7.39 8.48a1.16 1.16 0 0 0-.22 1.19 1 1 0 0 0 1 .66h3.67v13a12 12 0 0 0-3.47.54V16.66A1 1 0 0 0 49 15.57h-5.29a1 1 0 0 0-1.08 1.09v17.49a11.91 11.91 0 0 0-1.31 5.54 12.28 12.28 0 0 0 .55 3.59H2.42V3.84a1.45 1.45 0 0 1 1.42-1.42zM48 28.83a16.78 16.78 0 0 0-3.15 2.28V17.74H48zm-4.45 11a10.27 10.27 0 1 1 10.27 10.3A10.47 10.47 0 0 1 43.5 39.8zm15.38-26.54V28.5a15.8 15.8 0 0 0-3.15-1V13.29a1.13 1.13 0 0 0-1.09-1.09H52.3l5-5.76 5 5.76H60a1.09 1.09 0 0 0-1.07 1.09zm-7.83 56.5H21.22v-4.23H51.1zM46 63.38H26.22l3.37-6.3h13zm22.38-8.47H3.84a1.38 1.38 0 0 1-1.42-1.42v-7.93h40.43a12.39 12.39 0 0 0 21.94 0h5v7.93a1.37 1.37 0 0 1-1.41 1.42z"/>
        <path d="M52.19 72.22h-32a1.28 1.28 0 0 1-1.34-1.34v-6.41a1.28 1.28 0 0 1 1.34-1.34h3.43l3.1-5.8H3.84A3.89 3.89 0 0 1 0 53.49V3.84A3.89 3.89 0 0 1 3.84 0h64.54a3.89 3.89 0 0 1 3.84 3.84c0 10.05 0 31 .11 49.65a3.89 3.89 0 0 1-3.84 3.84H45.65l3.1 5.8h3.44a1.28 1.28 0 0 1 1.34 1.34v6.41a1.28 1.28 0 0 1-1.34 1.34zm-32-8.59a.78.78 0 0 0-.84.84v6.41a.78.78 0 0 0 .84.84h32a.78.78 0 0 0 .84-.84v-6.41a.78.78 0 0 0-.84-.84h-3.74l-3.63-6.8h23.67a3.39 3.39 0 0 0 3.34-3.34c-.11-18.69-.11-39.6-.11-49.65A3.39 3.39 0 0 0 68.38.5H3.84A3.39 3.39 0 0 0 .5 3.84v49.65a3.39 3.39 0 0 0 3.34 3.34h23.67l-3.64 6.8zM51.35 70H21v-4.69h30.35zm-29.88-.5h29.38v-3.69H21.47zm24.94-5.91H25.8l3.64-6.8h13.34zm-19.77-.5h18.94l-3.1-5.8H29.74zm41.74-8H3.84a1.64 1.64 0 0 1-1.67-1.67v-8.11H43l.07.14a12.15 12.15 0 0 0 21.5 0l.07-.14H70v8.18a1.63 1.63 0 0 1-1.62 1.67zM2.67 45.81v7.68a1.13 1.13 0 0 0 1.17 1.17h64.54a1.12 1.12 0 0 0 1.16-1.17v-7.68h-4.6a12.64 12.64 0 0 1-22.24 0zm51.15 4.57A10.74 10.74 0 0 1 43.25 39.8a10.47 10.47 0 0 1 17.92-7.35 10.35 10.35 0 0 1 3.11 7.46 10.48 10.48 0 0 1-10.46 10.47zm-.11-20.54a10 10 0 0 0-10 10 10.23 10.23 0 0 0 10.11 10.04 10 10 0 0 0 10-10 9.83 9.83 0 0 0-3-7.1 10 10 0 0 0-7.11-2.94zM70 43.75h-4.7l.08-.32a13.42 13.42 0 0 0 .62-3.52 12.33 12.33 0 0 0-3.52-8.63c-.42-.41-1-.85-1.48-1.27l-.09-.07V14.13h3.94a.81.81 0 0 0 .76-.52.75.75 0 0 0-.17-.9L58 4.22a1 1 0 0 0-1.27 0l-7.37 8.46a.93.93 0 0 0-.17 1 .8.8 0 0 0 .74.47h3.94v13.52h-.27a11.65 11.65 0 0 0-3.4.53l-.32.09V16.66a.78.78 0 0 0-.84-.84h-5.33a.77.77 0 0 0-.83.84v17.61a11.74 11.74 0 0 0-1.28 5.42 12.1 12.1 0 0 0 .54 3.52l.09.32h-40V3.84a1.69 1.69 0 0 1 1.61-1.67h64.54A1.68 1.68 0 0 1 70 3.84zm-4-.5h3.55V3.84a1.2 1.2 0 0 0-1.16-1.17H3.84a1.21 1.21 0 0 0-1.17 1.17V43h38.87a12.47 12.47 0 0 1-.47-3.34 12.26 12.26 0 0 1 1.31-5.6v-17.4a1.28 1.28 0 0 1 1.33-1.34H49a1.28 1.28 0 0 1 1.34 1.34v11a12.27 12.27 0 0 1 3-.46V14.63h-3.43a1.29 1.29 0 0 1-1.2-.79 1.44 1.44 0 0 1 .29-1.49l7.38-8.46a1.43 1.43 0 0 1 2 0l7.4 8.48a1.25 1.25 0 0 1 .22 1.47 1.32 1.32 0 0 1-1.21.79h-3.44v15.06a18.66 18.66 0 0 1 1.45 1.24 12.84 12.84 0 0 1 3.66 9 13.73 13.73 0 0 1-.46 3.32zM44.55 31.67V17.49h3.65V29l-.13.07A16.12 16.12 0 0 0 45 31.3zm.5-13.67v12.56a16.31 16.31 0 0 1 2.65-1.88V18zm14.13 10.9l-.35-.16a14.8 14.8 0 0 0-3.1-1h-.2V13.29a.89.89 0 0 0-.84-.84h-2.94l5.55-6.39 5.54 6.39H60a.84.84 0 0 0-.83.84zM56 27.32a16.07 16.07 0 0 1 2.65.8V13.29A1.34 1.34 0 0 1 60 12h1.74L57.3 6.83 52.85 12h1.84A1.37 1.37 0 0 1 56 13.29z"/>
        <path d="M36.11 46.54a3.59 3.59 0 1 0 3.58 3.59 3.62 3.62 0 0 0-3.58-3.59zm0 5a1.42 1.42 0 1 1 1.41-1.41 1.37 1.37 0 0 1-1.41 1.41z"/>
        <path d="M36.11 54a3.84 3.84 0 1 1 3.83-3.83A3.89 3.89 0 0 1 36.11 54zm0-7.17a3.34 3.34 0 1 0 3.33 3.34 3.39 3.39 0 0 0-3.33-3.38zm0 5a1.67 1.67 0 1 1 1.66-1.66 1.63 1.63 0 0 1-1.66 1.62zm0-2.83a1.17 1.17 0 0 0 0 2.33 1.12 1.12 0 0 0 1.16-1.16A1.2 1.2 0 0 0 36.11 49z"/>
    </symbol>
    <symbol id="e" viewBox="0 0 72.31 72.32">
        <path d="M15.48 60h-.11a6.74 6.74 0 1 0-7.18 0h-.32a7.64 7.64 0 0 0-7.62 7.6V71a1 1 0 0 0 1.09 1.09H22A1 1 0 0 0 23.1 71v-3.4a7.64 7.64 0 0 0-7.62-7.6zm-3.7-10.12a4.57 4.57 0 1 1 0 9.14 4.7 4.7 0 0 1-4.57-4.68 4.51 4.51 0 0 1 4.57-4.47zm9.14 20H2.43V67.6a5.46 5.46 0 0 1 5.44-5.44h7.61a5.46 5.46 0 0 1 5.44 5.44z"/>
        <path d="M22 72.32H1.34A1.28 1.28 0 0 1 0 71v-3.4a7.87 7.87 0 0 1 7.44-7.85 7 7 0 1 1 8.67 0 7.88 7.88 0 0 1 7.24 7.84V71A1.28 1.28 0 0 1 22 72.32zM7.87 60.24A7.37 7.37 0 0 0 .5 67.6V71a.78.78 0 0 0 .84.84H22a.78.78 0 0 0 .84-.84v-3.4a7.37 7.37 0 0 0-7.37-7.36h-1l.71-.46a6.5 6.5 0 1 0-6.91 0l.71.46zm13.3 9.9h-19V67.6a5.7 5.7 0 0 1 5.69-5.69h7.61a5.7 5.7 0 0 1 5.69 5.69zm-18.49-.5h18v-2a5.19 5.19 0 0 0-5.19-5.19H7.87a5.19 5.19 0 0 0-5.19 5.15zm9.1-10.38A4.94 4.94 0 0 1 7 54.33a4.77 4.77 0 0 1 4.82-4.71 4.82 4.82 0 1 1 0 9.64zm0-9.14a4.27 4.27 0 0 0-4.32 4.21 4.44 4.44 0 0 0 4.32 4.43 4.32 4.32 0 1 0 0-8.64zM40 60h-.11a6.75 6.75 0 1 0-7.18 0h-.33a7.64 7.64 0 0 0-7.62 7.61V71a1 1 0 0 0 1.09 1.09h20.64A1 1 0 0 0 47.58 71v-3.4A7.63 7.63 0 0 0 40 60zm-3.7-10.12a4.57 4.57 0 1 1-4.57 4.57 4.52 4.52 0 0 1 4.54-4.58zm9.14 20H26.91V67.6a5.46 5.46 0 0 1 5.44-5.44H40a5.46 5.46 0 0 1 5.44 5.44z"/>
        <path d="M46.49 72.32H25.82A1.28 1.28 0 0 1 24.48 71v-3.4a7.87 7.87 0 0 1 7.44-7.85 7 7 0 1 1 8.68 0 7.88 7.88 0 0 1 7.23 7.84V71a1.28 1.28 0 0 1-1.34 1.32zM32.35 60.24A7.37 7.37 0 0 0 25 67.6V71a.78.78 0 0 0 .84.84h20.65a.78.78 0 0 0 .84-.84v-3.4A7.37 7.37 0 0 0 40 60.24h-1l.71-.46a6.5 6.5 0 1 0-6.91 0l.71.46zm13.31 9.9h-19V67.6a5.7 5.7 0 0 1 5.69-5.69H40a5.71 5.71 0 0 1 5.69 5.69zm-18.5-.5h18v-2A5.2 5.2 0 0 0 40 62.41h-7.65a5.2 5.2 0 0 0-5.19 5.19zm9.11-10.38a4.82 4.82 0 0 1-4.82-4.82 4.77 4.77 0 0 1 4.82-4.82 4.82 4.82 0 1 1 0 9.64zm0-9.14A4.27 4.27 0 0 0 32 54.44a4.32 4.32 0 1 0 4.32-4.32zM64.45 60h-.11a6.75 6.75 0 1 0-7.18 0h-.33a7.64 7.64 0 0 0-7.62 7.61V71a1 1 0 0 0 1.09 1.09H71A1 1 0 0 0 72.07 71v-3.4a7.71 7.71 0 0 0-7.62-7.6zm-3.7-10.12a4.57 4.57 0 1 1-4.57 4.57 4.46 4.46 0 0 1 4.57-4.58zm9.14 20h-18.5V67.6a5.46 5.46 0 0 1 5.44-5.44h7.62a5.46 5.46 0 0 1 5.44 5.44z"/>
        <path d="M71 72.32H50.3A1.29 1.29 0 0 1 49 71v-3.4a7.87 7.87 0 0 1 7.44-7.85 7 7 0 1 1 8.68 0 8 8 0 0 1 7.23 7.84V71A1.28 1.28 0 0 1 71 72.32zM56.83 60.24a7.37 7.37 0 0 0-7.37 7.36V71a.79.79 0 0 0 .84.84H71a.78.78 0 0 0 .83-.84v-3.4a7.46 7.46 0 0 0-7.36-7.36h-1l.71-.46a6.5 6.5 0 1 0-6.91 0l.71.46zm13.31 9.9h-19V67.6a5.7 5.7 0 0 1 5.69-5.69h7.62a5.7 5.7 0 0 1 5.69 5.69zm-18.5-.5h18v-2a5.2 5.2 0 0 0-5.19-5.19h-7.62a5.2 5.2 0 0 0-5.19 5.19zm9.11-10.38a4.82 4.82 0 0 1-4.82-4.82 4.71 4.71 0 0 1 4.82-4.82 4.82 4.82 0 0 1 0 9.64zm0-9.14a4.23 4.23 0 0 0-4.32 4.32 4.32 4.32 0 1 0 4.32-4.32zM36.16 37.57A18.66 18.66 0 1 0 17.44 19a18.71 18.71 0 0 0 18.72 18.57zm0-35.14A16.54 16.54 0 1 1 19.62 19 16.53 16.53 0 0 1 36.16 2.43z"/>
        <path d="M36.16 37.82a18.91 18.91 0 1 1 19-19 18.93 18.93 0 0 1-19 19zm0-37.32a18.41 18.41 0 1 0 18.46 18.36A18.49 18.49 0 0 0 36.16.5zm0 35.25A16.79 16.79 0 1 1 53 19a16.8 16.8 0 0 1-16.84 16.75zm0-33.07A16.29 16.29 0 1 0 52.45 19 16.31 16.31 0 0 0 36.16 2.68z"/>
        <path d="M35.07 29.3v3.59a1.09 1.09 0 0 0 2.18 0v-3.48a10.63 10.63 0 0 0 9.35-9.36h3.49a1.09 1.09 0 0 0 0-2.17H46.6a10.63 10.63 0 0 0-9.35-9.36V5a1.09 1.09 0 0 0-2.18 0v3.52a10.64 10.64 0 0 0-9.36 9.36h-3.48a1.09 1.09 0 1 0 0 2.17h3.48a10.42 10.42 0 0 0 9.36 9.25zm0-18.6v3.37a1.09 1.09 0 0 0 2.18 0V10.7a8.31 8.31 0 0 1 7.18 7.07h-3.38a1.09 1.09 0 0 0 0 2.17h3.38A8.12 8.12 0 0 1 37.25 27v-3.36a1.09 1.09 0 0 0-2.18 0V27a8.32 8.32 0 0 1-7.18-7.08h3.37a1.09 1.09 0 1 0 0-2.17h-3.37a8.53 8.53 0 0 1 7.18-7.05z"/>
        <path d="M36.16 34.23a1.28 1.28 0 0 1-1.34-1.34v-3.36a10.68 10.68 0 0 1-9.33-9.23h-3.26a1.34 1.34 0 1 1 0-2.67h3.26a10.93 10.93 0 0 1 9.33-9.33V5a1.34 1.34 0 0 1 2.68 0v3.3a10.91 10.91 0 0 1 9.32 9.33h3.26a1.34 1.34 0 1 1 0 2.67h-3.26a10.91 10.91 0 0 1-9.32 9.33v3.26a1.28 1.28 0 0 1-1.34 1.34zm-13.93-16.1a.84.84 0 1 0 0 1.67h3.71l.06.2a10.16 10.16 0 0 0 9.13 9h.23v3.82a.84.84 0 0 0 1.68 0v-3.7h.22A10.4 10.4 0 0 0 46.35 20v-.23h3.7a.84.84 0 1 0 0-1.67h-3.7v-.22a10.4 10.4 0 0 0-9.13-9.14H37V5a.84.84 0 1 0-1.68 0v3.7h-.22a10.41 10.41 0 0 0-9.1 9.21v.22zm13.09 9.17h-.28a8.57 8.57 0 0 1-7.4-7.3v-.29h3.66a.84.84 0 1 0 0-1.67h-3.7v-.29a8.8 8.8 0 0 1 7.4-7.3h.29v3.66a.84.84 0 1 0 1.68 0v-3.69h.27a8.53 8.53 0 0 1 7.4 7.28v.29h-3.59a.84.84 0 0 0 0 1.67h3.66v.28a8.35 8.35 0 0 1-7.41 7.3h-.27v-3.6a.84.84 0 0 0-1.68 0zm.84-5a1.28 1.28 0 0 1 1.34 1.33v3.09a7.83 7.83 0 0 0 6.64-6.54h-3.09a1.34 1.34 0 0 1 0-2.67h3.08A8.05 8.05 0 0 0 37.5 11v3.09a1.34 1.34 0 0 1-2.68 0V11a8.3 8.3 0 0 0-6.64 6.53h3.08a1.34 1.34 0 1 1 0 2.67h-3.08a8.05 8.05 0 0 0 6.64 6.54v-3.1a1.28 1.28 0 0 1 1.34-1.33zM2.75 48.34a1 1 0 0 0 1.09-1.08V20.38H11l-3.24 3.05A1.15 1.15 0 0 0 7.65 25a1.15 1.15 0 0 0 1.52.11l5.33-4.9c.44-.43.33-1 .33-.76a.84.84 0 0 0-.33-.76l-5.33-4.84a1.06 1.06 0 0 0-1.52.15 1 1 0 0 0 .11 1.52l3.15 2.83H2.75a1 1 0 0 0-1.09 1.05v28a1 1 0 0 0 1.09.94z"/>
        <path d="M2.75 48.59a1.26 1.26 0 0 1-1.34-1.22v-28a1.28 1.28 0 0 1 1.34-1.34h7.51l-2.67-2.36a1.5 1.5 0 0 1-.46-.92 1.16 1.16 0 0 1 .34-1 1.32 1.32 0 0 1 1.88-.11l5.3 4.76a1.09 1.09 0 0 1 .43.85 1.31 1.31 0 0 1-.4 1.06l-5.34 4.9a1.43 1.43 0 0 1-1.87-.11 1.44 1.44 0 0 1 .11-1.88l2.81-2.62h-6.3v26.66a1.28 1.28 0 0 1-1.34 1.33zm0-30a.78.78 0 0 0-.84.84v28a.76.76 0 0 0 .84.72.77.77 0 0 0 .84-.83V20.13h8.07l-3.73 3.48a.92.92 0 0 0-.08 1.19.91.91 0 0 0 1.15.06L14.33 20a.84.84 0 0 0 .26-.58.65.65 0 0 0-.19-.54h-.05L9 14a.83.83 0 1 0-1.08 1.27l3.64 3.25zm53.65.7a1 1 0 0 0 .32.76L62.05 25a1.05 1.05 0 0 0 1.53 0 1 1 0 0 0-.11-1.52l-3.27-3.1h8.27v26.88a1.09 1.09 0 0 0 2.18 0v-28a1 1 0 0 0-1.09-1.09h-9.25l3.16-2.83a1.17 1.17 0 0 0 .11-1.52 1.19 1.19 0 0 0-1.53-.11l-5.33 4.79a.85.85 0 0 0-.32.76z"/>
        <path d="M69.56 48.59a1.28 1.28 0 0 1-1.34-1.33V20.63h-7.38l2.8 2.61a1.28 1.28 0 0 1 .5.93 1.32 1.32 0 0 1-2.26 1l-5.33-4.89a1.27 1.27 0 0 1-.4-.84 1.18 1.18 0 0 1 .42-1.07l5.32-4.77a1.33 1.33 0 0 1 1.76 2L61 18h8.59a1.28 1.28 0 0 1 1.34 1.34v28a1.28 1.28 0 0 1-1.37 1.25zm-10-28.46h9.15v27.13a.84.84 0 0 0 1.68 0v-28a.78.78 0 0 0-.84-.84h-9.9l3.64-3.26a.83.83 0 1 0-1.1-1.25l-5.31 4.78a.73.73 0 0 0-.26.57.76.76 0 0 0 .25.59l5.32 4.89a.77.77 0 0 0 .6.26.72.72 0 0 0 .58-.26.74.74 0 0 0 .24-.57.77.77 0 0 0-.33-.58z"/>
    </symbol>
    <symbol id="f" viewBox="0 0 77.62 73.43">
        <circle cx="38.81" cy="56.09" r="1.79"/>
        <path d="M38.81 58a1.91 1.91 0 1 1 1.92-1.91A1.91 1.91 0 0 1 38.81 58zm0-3.57a1.66 1.66 0 1 0 1.67 1.66 1.66 1.66 0 0 0-1.67-1.66z"/>
        <path d="M38.81 58.1a2 2 0 1 1 2-2 2 2 0 0 1-2 2zm0-3.57a1.57 1.57 0 0 0 0 3.13 1.57 1.57 0 1 0 0-3.13z"/>
        <path d="M38.81 58.23A2.14 2.14 0 1 1 41 56.09a2.14 2.14 0 0 1-2.19 2.14zm0-4a1.89 1.89 0 1 0 1.89 1.89 1.89 1.89 0 0 0-1.89-1.92zm0 3.58a1.69 1.69 0 1 1 1.69-1.69 1.69 1.69 0 0 1-1.69 1.66zm0-3.13a1.44 1.44 0 1 0 1.44 1.44 1.45 1.45 0 0 0-1.44-1.47z"/>
        <path d="M72.8 8.68H50.21a3.47 3.47 0 0 1 2.15 1.79H72.8a2.67 2.67 0 0 1 2.69 2.69v36.67H2.14V13.16a2.66 2.66 0 0 1 2.68-2.69h21a3.92 3.92 0 0 1 2.76-1.72l.09-.07H4.82a4.48 4.48 0 0 0-4.47 4.48v44.72a4.48 4.48 0 0 0 4.47 4.47h26.84v8.95h-3.58a.9.9 0 1 0 0 1.79h21.47a.9.9 0 0 0 0-1.79H46v-8.95h26.8a4.48 4.48 0 0 0 4.47-4.47V13.16a4.48 4.48 0 0 0-4.47-4.48zM44.18 71.3H33.44v-8.95h10.74zm31.31-13.42a2.66 2.66 0 0 1-2.69 2.68h-68a2.65 2.65 0 0 1-2.68-2.68v-6.26h73.37z"/>
        <path d="M49.55 73.21H28.08a1 1 0 1 1 0-2h3.45v-8.73H4.82a4.61 4.61 0 0 1-4.6-4.6V13.16a4.61 4.61 0 0 1 4.6-4.6h24.25l-.38.23a3.8 3.8 0 0 0-2.68 1.67v.06h-21a2.53 2.53 0 0 0-2.56 2.56V49.7h73.1V13.16a2.53 2.53 0 0 0-2.75-2.56H52.28v-.07a3.37 3.37 0 0 0-2.11-1.73l-.76-.24H72.8a4.6 4.6 0 0 1 4.6 4.6v44.72a4.6 4.6 0 0 1-4.6 4.6H46.09v8.69h3.46a1 1 0 0 1 0 2zm-21.47-1.79a.77.77 0 0 0 0 1.54h21.47a.77.77 0 0 0 0-1.54h-3.71v-9.19h27a4.35 4.35 0 0 0 4.35-4.35V13.16a4.35 4.35 0 0 0-4.39-4.35H50.85a3.47 3.47 0 0 1 1.58 1.54H72.8a2.77 2.77 0 0 1 2.81 2.81V50H2V13.16a2.78 2.78 0 0 1 2.81-2.81h20.9a4 4 0 0 1 2-1.54H4.82a4.35 4.35 0 0 0-4.35 4.35v44.72a4.35 4.35 0 0 0 4.35 4.35h27v9.19zm16.22 0h-11v-9.19h11zm-10.73-.25h10.48v-8.69H33.57zM72.8 60.69h-68A2.78 2.78 0 0 1 2 57.88v-6.39h73.6v6.39a2.77 2.77 0 0 1-2.8 2.81zM2.26 51.74v6.14a2.54 2.54 0 0 0 2.56 2.56h68a2.53 2.53 0 0 0 2.56-2.56v-6.14z"/>
        <path d="M49.55 73.31H28.08a1.12 1.12 0 1 1 0-2.24h3.35v-8.49H4.82a4.71 4.71 0 0 1-4.7-4.7V13.16a4.71 4.71 0 0 1 4.7-4.7h24.61l-.86.54A3.72 3.72 0 0 0 26 10.6l-.07.1H4.82a2.43 2.43 0 0 0-2.46 2.46v36.45h72.9V13.16a2.43 2.43 0 0 0-2.46-2.46H52.22l-.06-.13a3.27 3.27 0 0 0-2-1.67l-1.36-.44h24a4.71 4.71 0 0 1 4.7 4.7v44.72a4.71 4.71 0 0 1-4.7 4.7H46.19v8.49h3.36a1.12 1.12 0 0 1 0 2.24zm-21.47-1.79a.67.67 0 1 0 0 1.34h21.47a.67.67 0 0 0 0-1.34h-3.81v-9.39H72.8a4.26 4.26 0 0 0 4.25-4.25V13.16a4.25 4.25 0 0 0-4.25-4.25H51.23a3.45 3.45 0 0 1 1.26 1.34H72.8a2.88 2.88 0 0 1 2.91 2.91v36.89H1.91V13.16a2.88 2.88 0 0 1 2.91-2.91h20.84a4 4 0 0 1 1.59-1.34H4.82a4.25 4.25 0 0 0-4.25 4.25v44.72a4.26 4.26 0 0 0 4.25 4.25h27.06v9.39zm16.32 0H33.22v-9.39H44.4zm-10.73-.45H44v-8.49H33.67zM72.8 60.79h-68a2.88 2.88 0 0 1-2.91-2.91v-6.49h73.8v6.49a2.88 2.88 0 0 1-2.89 2.91zM2.36 51.84v6a2.43 2.43 0 0 0 2.46 2.46h68a2.43 2.43 0 0 0 2.46-2.46v-6z"/>
        <path d="M49.55 73.43H28.08a1.24 1.24 0 1 1 0-2.48h3.23V62.7H4.82A4.82 4.82 0 0 1 0 57.88V13.16a4.83 4.83 0 0 1 4.82-4.83h25.07l-1.3.76a3.66 3.66 0 0 0-2.53 1.58l-.1.15H4.82a2.31 2.31 0 0 0-2.33 2.34v36.32h72.65V13.16a2.32 2.32 0 0 0-2.34-2.34H52.14l-.1-.2A3.15 3.15 0 0 0 50.1 9L48 8.33h24.8a4.83 4.83 0 0 1 4.82 4.83v44.72a4.82 4.82 0 0 1-4.82 4.82H46.32V71h3.23a1.24 1.24 0 1 1 0 2.48zM28.08 71.2a1 1 0 1 0 0 2h21.47a1 1 0 1 0 0-2h-3.48v-8.75H72.8a4.58 4.58 0 0 0 4.57-4.57V13.16a4.58 4.58 0 0 0-4.57-4.58H49.58l.6.2a3.41 3.41 0 0 1 2.09 1.73v.06H72.8a2.57 2.57 0 0 1 2.59 2.59v36.57H2.24V13.16a2.56 2.56 0 0 1 2.58-2.59h21a3.84 3.84 0 0 1 2.67-1.68l.51-.31H4.82a4.58 4.58 0 0 0-4.57 4.58v44.72a4.58 4.58 0 0 0 4.57 4.57h26.74v8.75zM49.55 73H28.08a.8.8 0 0 1-.8-.8.79.79 0 0 1 .8-.79h3.67v-9.16H4.82a4.37 4.37 0 0 1-4.37-4.37V13.16a4.38 4.38 0 0 1 4.37-4.38h23L27.3 9a3.87 3.87 0 0 0-1.54 1.3H4.82A2.75 2.75 0 0 0 2 13.16v36.77h73.58V13.16a2.75 2.75 0 0 0-2.78-2.79H52.42v-.06A3.38 3.38 0 0 0 51.16 9l-.37-.23h22a4.39 4.39 0 0 1 4.38 4.38v44.73a4.38 4.38 0 0 1-4.38 4.37H45.87v9.15h3.68a.79.79 0 0 1 .79.79.8.8 0 0 1-.79.81zm-21.47-1.35a.55.55 0 0 0-.55.54.55.55 0 0 0 .55.55h21.47a.55.55 0 0 0 .54-.55.54.54 0 0 0-.54-.54h-3.93V62H72.8a4.13 4.13 0 0 0 4.13-4.12V13.16A4.13 4.13 0 0 0 72.8 9H51.63a3.78 3.78 0 0 1 .94 1.09H72.8a3 3 0 0 1 3 3v37h-74v-37a3 3 0 0 1 3-3h20.79A4.32 4.32 0 0 1 26.76 9H4.82A4.13 4.13 0 0 0 .7 13.16v44.72A4.13 4.13 0 0 0 4.82 62H32v9.65zm16.45 0H33.1V62h11.43zm-11.18-.25h10.93v-9.15H33.35zm10.73-.2H33.54v-8.75h10.54zM33.79 71h10v-8.3h-10zm39-10h-68a3 3 0 0 1-3-3v-6.73h74v6.61a3 3 0 0 1-2.99 3.03zM2 51.52v6.36a2.75 2.75 0 0 0 2.78 2.78h68a2.75 2.75 0 0 0 2.78-2.78v-6.36zm70.8 8.94h-68a2.55 2.55 0 0 1-2.58-2.58v-6.16h73.17v6.16a2.56 2.56 0 0 1-2.59 2.58zM2.49 52v5.91a2.3 2.3 0 0 0 2.33 2.33h68a2.31 2.31 0 0 0 2.34-2.33V52z"/>
        <circle cx="38.81" cy="23.04" r="2.86"/>
        <path d="M38.81 26a3 3 0 1 1 3-3 3 3 0 0 1-3 3zm0-5.73A2.74 2.74 0 1 0 41.55 23a2.74 2.74 0 0 0-2.74-2.7z"/>
        <path d="M60.77 22.08h-2.91A19.05 19.05 0 0 0 39.77 4V1.08a1 1 0 0 0-1.91 0V4a19.06 19.06 0 0 0-18.1 18.09h-2.91a1 1 0 0 0 0 1.91h2.91a19.06 19.06 0 0 0 18.1 18.1V45a1 1 0 0 0 1.91 0v-2.91A19.06 19.06 0 0 0 57.86 24h2.91a1 1 0 1 0 0-1.91zm-4.82 0H54A15.32 15.32 0 0 0 39.77 7.81V5.9A17.15 17.15 0 0 1 56 22.08zM21.67 24h1.91a15.32 15.32 0 0 0 14.28 14.27v1.91A17.15 17.15 0 0 1 21.67 24zm18.1 16.19v-6.65a1 1 0 0 0-1.91 0v2.82A13.43 13.43 0 0 1 25.49 24h6.64a1 1 0 0 0 0-1.91H21.67A17.15 17.15 0 0 1 37.86 5.9v6.64a1 1 0 0 0 1.91 0V9.72a13.42 13.42 0 0 1 12.36 12.36h-6.64a1 1 0 0 0 0 1.91H56a17.15 17.15 0 0 1-16.23 16.19z"/>
        <path d="M38.81 46.08A1.09 1.09 0 0 1 37.73 45v-2.79a19.1 19.1 0 0 1-18.08-18.09h-2.8a1.08 1.08 0 0 1 0-2.16h2.8A19.1 19.1 0 0 1 37.73 3.87V1.08a1.08 1.08 0 0 1 2.16 0v2.79A19.11 19.11 0 0 1 58 22h2.79a1.08 1.08 0 0 1 0 2.16H58a19.11 19.11 0 0 1-18.11 18.05V45a1.08 1.08 0 0 1-1.08 1.08zm-22-23.87a.83.83 0 1 0 0 1.66h3V24a18.84 18.84 0 0 0 18 18H38v3a.83.83 0 0 0 1.66 0v-3h.12a18.83 18.83 0 0 0 18-18v-.12h3a.83.83 0 1 0 0-1.66h-3v-.12a18.83 18.83 0 0 0-18-18h-.12v-3a.83.83 0 1 0-1.66 0v3h-.12a18.84 18.84 0 0 0-18 18v.12zm22.79 18.1v-6.77a.83.83 0 0 0-1.66 0v3h-.13A13.55 13.55 0 0 1 25.37 24v-.13h6.77a.83.83 0 0 0 0-1.66h-10.6v-.13a17.24 17.24 0 0 1 16.3-16.3H38v6.77a.83.83 0 0 0 1.66 0V9.59h.13a13.55 13.55 0 0 1 12.46 12.49v.13h-6.76a.83.83 0 0 0 0 1.66h10.59V24a17.24 17.24 0 0 1-16.3 16.3zm-.83-7.85a1.08 1.08 0 0 1 1.08 1.08V40a17 17 0 0 0 15.97-15.88H45.49a1.08 1.08 0 0 1 0-2.16H52a13.32 13.32 0 0 0-12.11-12.1v2.68a1.08 1.08 0 0 1-2.16 0V6a17 17 0 0 0-15.92 16h10.32a1.08 1.08 0 1 1 0 2.16h-6.5a13.31 13.31 0 0 0 12.1 12.1v-2.72a1.09 1.09 0 0 1 1.08-1.08zM38 40.31h-.13A17.24 17.24 0 0 1 21.55 24v-.13h2.15V24a15.14 15.14 0 0 0 14.16 14.14H38zM21.81 24.12A17 17 0 0 0 37.73 40v-1.62a15.38 15.38 0 0 1-14.26-14.26zm34.27-1.91h-2.16v-.12A15.16 15.16 0 0 0 39.76 7.94h-.12V5.77h.13a17.24 17.24 0 0 1 16.3 16.3zM54.16 22h1.66A17 17 0 0 0 39.89 6v1.69A15.42 15.42 0 0 1 54.16 22z"/>
    </symbol>
    <symbol id="g" viewBox="0 0 77.59 73.75">
        <path d="M17.64 31.93l1.25-2.33A14.35 14.35 0 0 1 26 2.65 14.52 14.52 0 0 1 40.58 17a13.52 13.52 0 0 1-2.13 7.37l2.22 1.43a16.1 16.1 0 0 0 2.56-8.8 17.23 17.23 0 0 0-34.46 0 16.81 16.81 0 0 0 8.87 14.93z"/>
        <path d="M23.43 20.83L22.31 20l-1.68 2.25 1.12.84a5.83 5.83 0 0 0 2.91 1.07V26h2.8v-2.2a4.59 4.59 0 0 0 2.91-4.21 4.48 4.48 0 0 0-4.69-4.66 2 2 0 0 1-2-2A2.15 2.15 0 0 1 26 11a2.5 2.5 0 0 1 1.68.55l1.07.91 1.82-2.14-1.08-.91a5 5 0 0 0-2-1V6.35h-2.83v2.06a4.82 4.82 0 0 0-3.77 4.47 4.77 4.77 0 0 0 4.79 4.86 1.69 1.69 0 0 1 1.89 1.85c-.01 1.6-2.57 2.41-4.14 1.24zm6.52 5.19L9.61 42.14l1.91 1.97 18.86-14.95 16.92 7.8 14.4-10.19v3.09h2.89V22h-8.68v2.62h4.13l-13.07 9.25-17.02-7.85z"/>
        <path d="M72 70.94V40.05H57.74v5.62H47.32v8.42H39.7V37.24H26.47v16.85h-7.62v-5.61H5.62v22.46H0v2.81h77.59v-2.81zm-63.55 0V51.29H16v19.65zm10.42 0v-14h7.62v14zm10.43 0V40.05h7.61v30.89zm10.42 0v-14h7.62v14zm10.43 0V48.48h7.61v22.46zm10.42 0V42.86h8.62v28.08z"/>
    </symbol>
    <symbol id="h" viewBox="0 0 71.12 74.77">
        <path d="M13.25 48.37a1.3 1.3 0 0 0-.36-.94 3 3 0 0 0-1.21-.66 9.22 9.22 0 0 1-1.3-.56 2.66 2.66 0 0 1-1.56-2.47 2.53 2.53 0 0 1 .67-1.82 2.86 2.86 0 0 1 1.83-.85v-1.46h1.07v1.47a2.62 2.62 0 0 1 1.8 1 3.36 3.36 0 0 1 .63 2.12h-1.61a2.09 2.09 0 0 0-.38-1.32 1.24 1.24 0 0 0-1-.49 1.4 1.4 0 0 0-1 .35 1.32 1.32 0 0 0-.36 1 1.24 1.24 0 0 0 .36.93 3.56 3.56 0 0 0 1.21.66 11.18 11.18 0 0 1 1.34.58 3.6 3.6 0 0 1 .83.62 2.44 2.44 0 0 1 .51.79 2.74 2.74 0 0 1 .18 1 2.51 2.51 0 0 1-.69 1.83 3 3 0 0 1-1.93.82v1.31h-1.09V51a3.07 3.07 0 0 1-2-1 3.08 3.08 0 0 1-.74-2h1.62a1.86 1.86 0 0 0 .42 1.3 1.53 1.53 0 0 0 1.2.46 1.63 1.63 0 0 0 1.16-.37 1.27 1.27 0 0 0 .4-1zm-1.59-13.66A11.26 11.26 0 1 0 22.92 46a11.27 11.27 0 0 0-11.26-11.29zm0 1.54A9.72 9.72 0 1 1 1.94 46a9.7 9.7 0 0 1 9.72-9.71zM4.38 55.68a3.14 3.14 0 0 0-3.13 3.13 3.09 3.09 0 0 0 1.14 2.36 3 3 0 0 0 0 4.72 3.07 3.07 0 0 0-1.14 2.36 3.14 3.14 0 0 0 3.13 3.13h14.56a3.14 3.14 0 0 0 3.13-3.13 3.07 3.07 0 0 0-1.14-2.36 3 3 0 0 0 0-4.72 3.09 3.09 0 0 0 1.14-2.36 3.14 3.14 0 0 0-3.13-3.13zm0 1.54h14.56a1.59 1.59 0 0 1 0 3.18H4.38a1.59 1.59 0 0 1 0-3.18zm0 4.72h14.56a1.59 1.59 0 0 1 0 3.18H4.38a1.59 1.59 0 1 1 0-3.18zm0 4.72h14.56a1.59 1.59 0 0 1 0 3.18H4.38a1.59 1.59 0 1 1 0-3.18zM20.55.4a.76.76 0 0 0-.77.77.76.76 0 0 0 .1.39l4.79 8.29a.79.79 0 0 0 .78.38c.74-.12 1.43-.26 2.1-.33q2.14-.21 4.35-.21a41.62 41.62 0 0 1 4.34.22c.67.07 1.36.21 2.09.32a.78.78 0 0 0 .79-.37l4.79-8.3A.78.78 0 0 0 43.63.5a.87.87 0 0 0-.39-.1H20.55zm1.33 1.54h20l-3.83 6.69c-.53-.09-1.06-.19-1.65-.25a41.84 41.84 0 0 0-4.5-.24 44.8 44.8 0 0 0-4.51.23c-.59.06-1.12.16-1.65.25zm10 6.2a44.8 44.8 0 0 0-4.51.23c-.77.08-1.48.23-2.17.33a.78.78 0 0 0-.65.88.88.88 0 0 0 .1.27l.88 1.53 1 1.78a.77.77 0 0 0 .82.37 22.16 22.16 0 0 1 4.5-.46 22.87 22.87 0 0 1 4.49.46.76.76 0 0 0 .82-.37l1-1.78.88-1.52a.78.78 0 0 0-.28-1.06 1 1 0 0 0-.27-.09c-.69-.11-1.4-.25-2.17-.33a41.84 41.84 0 0 0-4.5-.24zm0 1.55a41.62 41.62 0 0 1 4.34.22c.32 0 .66.1 1 .15l-.32.55-.78 1.39a24.34 24.34 0 0 0-4.22-.43 23.51 23.51 0 0 0-4.23.43l-.78-1.35-.32-.55c.32-.06.66-.12 1-.15a41.68 41.68 0 0 1 4.35-.22zm0 1.84h-.16A23.65 23.65 0 0 0 8.19 35.24v.59a.76.76 0 0 0 .81.77.68.68 0 0 0 .2 0 9.53 9.53 0 0 1 2.5-.33 9.72 9.72 0 0 1 0 19.43 10 10 0 0 1-2.5-.34.78.78 0 0 0-.95.54 1.49 1.49 0 0 0 0 .21v.36a.76.76 0 0 0 .77.77h10a1.59 1.59 0 0 1 0 3.18v1.54a1.59 1.59 0 0 1 0 3.18.76.76 0 0 0-.76.78.77.77 0 0 0 .76.76 1.59 1.59 0 0 1 0 3.18H9a.76.76 0 0 0-.77.77v3a.77.77 0 0 0 .77.77h45.83a.78.78 0 0 0 .78-.77V65a.78.78 0 0 0-.78-.77H29.66V43.09a.77.77 0 0 0-.77-.77h-2.4l2.05-1.83a.79.79 0 0 0 .25-.58v-6.22h3.26v1.94a.76.76 0 0 0 .77.77.78.78 0 0 0 .51-.19l7.34-6.57 4.58 3.86a.78.78 0 0 0 1.09-.09.83.83 0 0 0 .18-.5v-6.83a.77.77 0 0 0-.77-.77h-2v-4.52h5.28a.77.77 0 0 0 .77-.77.83.83 0 0 0-.19-.52 23.65 23.65 0 0 0-17.75-8zm0 1.54a22 22 0 0 1 15.2 6.17H43a.77.77 0 0 0-.77.77v6.07a.77.77 0 0 0 .77.77h2v4.4L41.15 28a.76.76 0 0 0-1 0l-6.56 5.9v-1a.77.77 0 0 0-.77-.77H28a.78.78 0 0 0-.77.78v6.64l-3.29 3a.76.76 0 0 0-.06 1.09.76.76 0 0 0 .57.25h3.65V65a.77.77 0 0 0 .77.77h25.19v7.06H9.73v-1.45h9.21a3.14 3.14 0 0 0 3.13-3.13 3.11 3.11 0 0 0-1.14-2.36 3.07 3.07 0 0 0 1.14-2.36 3.11 3.11 0 0 0-1.14-2.36 3.07 3.07 0 0 0 1.14-2.36 3.14 3.14 0 0 0-3.13-3.13h-1.7a11.22 11.22 0 0 0-5.58-21 11.11 11.11 0 0 0-1.9.25A22.08 22.08 0 0 1 31.9 13.08zm13.18 36.17a.78.78 0 0 0-.77.77v4.86a.77.77 0 0 0 .77.77h8.19a.77.77 0 0 0 .77-.77V50a.78.78 0 0 0-.77-.77zm.77 1.54h6.64v3.32h-6.64zm14.35-6a3.14 3.14 0 1 0 3.15 3.14 3.15 3.15 0 0 0-3.15-3.13zm0 1.54a1.6 1.6 0 1 1-1.59 1.6 1.58 1.58 0 0 1 1.59-1.59zm-17.27-27a.76.76 0 0 0-.77.77v6a.77.77 0 0 0 .77.77H70a.78.78 0 0 0 .77-.77v-6a.77.77 0 0 0-.77-.77zm.77 1.54h25.5v4.48h-25.5zm1.94 4.48a.76.76 0 0 0-.77.77v6.78a.8.8 0 0 0 .27.59l10.39 8.75h-2.26a.77.77 0 0 0-.78.77v21.77a.78.78 0 0 0 .78.77h14.27a.77.77 0 0 0 .77-.77V26.13a.76.76 0 0 0-.77-.77zm.77 1.54h20.36V64H54V43.79h3.61a.78.78 0 0 0 .79-.79.74.74 0 0 0-.28-.58l-11.73-9.87zM60.53 54a3.15 3.15 0 1 0 3.14 3.14A3.15 3.15 0 0 0 60.53 54zm0 1.54a1.6 1.6 0 1 1-1.6 1.6 1.59 1.59 0 0 1 1.6-1.61zM32.71 32.15H28a.76.76 0 0 0-.77.77v6.69a.78.78 0 0 0 .77.77.8.8 0 0 0 .5-.18l4.76-4a.8.8 0 0 0 .27-.59v-2.69a.77.77 0 0 0-.77-.78h-.14.07zM32 33.69v1.55L28.79 38v-4.31zm9.05-5.63l-.5 1.36-.51-1.34L24 42.44a.77.77 0 0 0-.05 1.09.77.77 0 0 0 .57.26h33.11a.78.78 0 0 0 .77-.79.74.74 0 0 0-.28-.58zm-.48 1.61l14.94 12.58h-29zm-6.83 19.38a.77.77 0 0 0-.77.77v14.95a.78.78 0 0 0 .77.77h8.18a.77.77 0 0 0 .77-.77V49.82a.76.76 0 0 0-.77-.77zm.77 1.54h6.64V64h-6.64zm-5.63-8.34a.76.76 0 0 0-.77.77v21.75a.77.77 0 0 0 .77.77h24.37a.78.78 0 0 0 .77-.77V43a.77.77 0 0 0-.77-.77zm.77 1.54h22.82V64H29.65z"/>
        <path d="M54.83 74.77H9a1.17 1.17 0 0 1-1.21-1.17v-1.82H4.38a3.53 3.53 0 0 1-3.53-3.53 3.42 3.42 0 0 1 1-2.36 3.38 3.38 0 0 1 0-4.72 3.42 3.42 0 0 1-1-2.36 3.53 3.53 0 0 1 3.53-3.53h.28A11.66 11.66 0 0 1 7.79 35a24.18 24.18 0 0 1 17.67-23l-1.14-2-4.79-8.24a1.2 1.2 0 0 1-.15-.59A1.16 1.16 0 0 1 20.55 0h22.7a1.1 1.1 0 0 1 .58.16 1.19 1.19 0 0 1 .55.71 1.16 1.16 0 0 1-.12.89l-4.8 8.3L38.34 12a24.11 24.11 0 0 1 11.34 6.93H70a1.17 1.17 0 0 1 1.17 1.17v6A1.18 1.18 0 0 1 70 27.3h-1.31v37.47a1.17 1.17 0 0 1-1.17 1.17H56v7.66a1.19 1.19 0 0 1-1.17 1.17zm-46.24-3v1.83A.37.37 0 0 0 9 74h45.83a.38.38 0 0 0 .38-.37v-7.69h-.75v7.29H9.33v-1.45zm1.54.65h43.53v-6.25H28.89A1.17 1.17 0 0 1 27.72 65v-.1a.62.62 0 0 1 0-.13V44.26h-3.25a1.16 1.16 0 0 1-.87-.39 1.14 1.14 0 0 1-.21-1.22 1.1 1.1 0 0 1 .33-.5l3.13-2.81v-6.42A1.17 1.17 0 0 1 28 31.75h4.64l.38-.07v.09a1.17 1.17 0 0 1 .98 1.15l6.23-5.57v.13a1.09 1.09 0 0 1 .59-.05v-.08l.14.12a1.47 1.47 0 0 1 .39.21l3 2.56v-3h-1.44a1.17 1.17 0 0 1-1.17-1.17v-6A1.37 1.37 0 0 1 43 18.84h3a21.54 21.54 0 0 0-13.7-5.36h-.4a23 23 0 0 0-2.51.14c-.64.07-1.28.17-1.91.3h-.11a21.54 21.54 0 0 0-17.2 20.48 11.91 11.91 0 0 1 5.81.73 12.26 12.26 0 0 1 2 1 11.7 11.7 0 0 1 2.9 2.67 11.53 11.53 0 0 1 2.43 6.71v.41a.61.61 0 0 1 0 .14 11.61 11.61 0 0 1-4.65 9.17h.28a3.54 3.54 0 0 1 3.53 3.53 3.42 3.42 0 0 1-1 2.36 3.42 3.42 0 0 1 1 2.36 3.42 3.42 0 0 1-1 2.36 3.42 3.42 0 0 1 1 2.36 3.54 3.54 0 0 1-3.53 3.53h-8.81zM8.59 71h10.35a2.73 2.73 0 0 0 2.73-2.73 2.68 2.68 0 0 0-1-2l-.36-.31.36-.31a2.6 2.6 0 0 0 0-4.1l-.36-.31.36-.31a2.68 2.68 0 0 0 1-2 2.74 2.74 0 0 0-2.73-2.73h-1.5a10.4 10.4 0 0 1-1.54.74h3a2 2 0 0 1 2 2 2 2 0 0 1-.66 1.49 1.91 1.91 0 0 1-.92.46v.82a2 2 0 0 1 1.58 2 2 2 0 0 1-2 2 .36.36 0 0 0-.26.11.32.32 0 0 0-.1.26.36.36 0 0 0 .36.37 2 2 0 0 1 2 2 2 2 0 0 1-2 2h-10a.37.37 0 0 0-.35.37zM4.38 56.08a2.73 2.73 0 0 0-2.73 2.73 2.64 2.64 0 0 0 1 2l.36.31-.36.31a2.6 2.6 0 0 0 0 4.1l.36.31-.36.3a2.68 2.68 0 0 0-1 2.06A2.73 2.73 0 0 0 4.38 71h3.41v-.37a1.1 1.1 0 0 1 .06-.37H4.38a2 2 0 0 1 0-4h13.45a1.36 1.36 0 0 1 0-.36 1 1 0 0 1 0-.38H4.38a2 2 0 0 1 0-4h14.16v-.72H4.38a2 2 0 0 1 0-4h3a12.12 12.12 0 0 1-1.54-.74zm0 11a1.19 1.19 0 1 0 0 2.38h14.56a1.19 1.19 0 0 0 0-2.38zM56 65.14h11.52a.38.38 0 0 0 .37-.37V27.3h-.74v37.09H55.84A1.23 1.23 0 0 1 56 65zm-1.65 0h.85V65a.38.38 0 0 0-.38-.37h-.41v.15a1.15 1.15 0 0 1-.05.36zm-1.11 0a.38.38 0 0 0 .37-.37v-.15h-.75v.15a.38.38 0 0 0 .39.37zm-10.24 0h9.1a1.51 1.51 0 0 1-.06-.37v-.15h-9v.15a1.15 1.15 0 0 1-.04.37zm-9.29 0h8.18a.37.37 0 0 0 .37-.37v-.15h-8.89v.15a.38.38 0 0 0 .37.37zm-5.22-.3a.37.37 0 0 0 .36.3h3.75a1.15 1.15 0 0 1-.06-.37v-.15h-3.28V44.19h-.73zm-24.11-2.5a1.19 1.19 0 0 0 0 2.38h14.56a1.19 1.19 0 0 0 0-2.38zm48.49 1.48h.75V56a1.15 1.15 0 0 1-.37.06h-.38zm1.55-.23h11.93V27.3H46.92v5.17l11.46 9.65.07.07a1.2 1.2 0 0 1 .34.67v.11a1.15 1.15 0 0 1-.34.82 1.18 1.18 0 0 1-.83.35h-3.2zm-11.33 0h9V56h-7a1.17 1.17 0 0 1-1.17-1.17V50a1.18 1.18 0 0 1 1.17-1.17h7v-4.64h-22v19.4h2.51V49.82a1.17 1.17 0 0 1 1.17-1.17h8.18a1.17 1.17 0 0 1 1.17 1.17zm-1.54 0h.74V49.82a.36.36 0 0 0-.37-.37h-8.18a.37.37 0 0 0-.37.37v13.77h.74v-13.4h7.44zm-6.64 0h5.84V51h-5.84zm-30.53-6a1.19 1.19 0 0 0 0 2.38h14.56a1.18 1.18 0 0 0 .8-.3 1.23 1.23 0 0 0 0-1.78 1.18 1.18 0 0 0-.8-.3zm7.17-.8h.21a10.62 10.62 0 0 0 3.84-.74h-7v.3a10.76 10.76 0 0 0 2.95.47zm-3.84-.74h.08-.08zm7.89-.8h1.54a10.86 10.86 0 0 0 5.37-9.18.57.57 0 0 0 0-.13v-.45a10.89 10.89 0 0 0-2.14-6 10.64 10.64 0 0 0-1-1.2 10.51 10.51 0 0 0-2.12-1.65 10.64 10.64 0 0 0-1.3-.67 9.81 9.81 0 0 0-5.73-.68l-.83.15v-.09c-.25.06-.51.12-.76.2v.28a.36.36 0 0 0 .37.37l.55-.12a9.62 9.62 0 0 1 1.94-.23A10.11 10.11 0 0 1 21.77 46a10.12 10.12 0 0 1-6.17 9.28zm-9.52 0h1.63A10.12 10.12 0 0 1 8 36.53a1.2 1.2 0 0 1-.22-.69 10.86 10.86 0 0 0-1.7 19.44zm3-.36h.18a9.91 9.91 0 0 0 2.39.32 9.32 9.32 0 1 0-.21-18.63 9.48 9.48 0 0 0-2.18.42h-.1a9.32 9.32 0 0 0-.07 17.93zm43.78.32h.38a.37.37 0 0 0 .37-.37V50a.38.38 0 0 0-.37-.37h-.38zm-7.81-5.6a.38.38 0 0 0-.37.37v4.86a.37.37 0 0 0 .37.37h7v-.71h-6.61v-4.12h6.63v-.74zm1.17 4.06h5.84v-2.49h-5.83zm6.64-4.86h.38a1.15 1.15 0 0 1 .37.06v-4.68h-.75zm1.55-5.45h3.21A.38.38 0 0 0 58 43a.37.37 0 0 0-.14-.29L46.8 33.42a.78.78 0 0 1-.16.24 1.12 1.12 0 0 1-.36.29l10.33 8.7h-2.25a1.1 1.1 0 0 1 .06.37zm-1.55 0h.75V43a.38.38 0 0 0-.75 0zm-22.81 0h22V43a1.43 1.43 0 0 1 .06-.37H30a1 1 0 0 1 .09.44zm-.81 0v-.3a.37.37 0 0 0-.37-.37h-.23a.36.36 0 0 0-.15.3v.37zm-5.11-.46a.37.37 0 0 0 .08.33.37.37 0 0 0 .28.13h3.21V43a1 1 0 0 1 0-.3h-2.3l.08-.07h-.06l2.16-1.94a1.16 1.16 0 0 1-.57-.43l-2.83 2.54a.31.31 0 0 0-.04.13zm29.11-1.08h1.17l-9.55-8.02-4.16-3.5-.11.29-.08-.23-6.91 6.14a1.44 1.44 0 0 1-.25.18L29 40.56a1.1 1.1 0 0 1-.2.23l-1.18 1.06zm-25.58-2.13a.4.4 0 0 0 .1.18.36.36 0 0 0 .24.13.34.34 0 0 0 .24-.09l.13-.11V39zm1.53-1.37v.79l3-2.51a1.11 1.11 0 0 1-.44-.54zm2.73-5.77H28a.38.38 0 0 0-.37.38v5.7l.74-.68v-4.66h4.06v1.05l.7-.63v-.79a.37.37 0 0 0-.32-.37zm-2.73 1.54v3l2.42-2v-1zm3.26 1.32v.22a.38.38 0 0 0 .43.37l.14-.12a.37.37 0 0 0 .13-.28v-.82zm1.5-1.3v1l6.22-5.55-.27-.71zm-8.07-21.36a23.37 23.37 0 0 0-17.29 22q.39-.1.78-.18a22.33 22.33 0 0 1 16.87-21.2zM45.25 33l.26.21a.38.38 0 0 0 .52 0 .36.36 0 0 0 .09-.24v-.07l-.87-.73V33zM41 29.4l3.45 2.9v-.86l-3.21-2.7zm4.38 1.77l.61.52V27.3h-.61zm-4.83-2.91zm28.14-1.76H70a.38.38 0 0 0 .37-.37v-6a.37.37 0 0 0-.37-.37H50.21a1.27 1.27 0 0 1 0 .28 1.18 1.18 0 0 1-.09.46h19.46v5.28h-1a1.1 1.1 0 0 1 .06.37zm-1.54 0h.74v-.37a.37.37 0 0 0-.37-.37H46.87a1.13 1.13 0 0 1 .05.32v.42zM46 26.5h.13v-.42a.37.37 0 0 0-.19-.32h-.31a.36.36 0 0 0-.37.37v.32h.13v.05zm-3.26-6.71a.35.35 0 0 0-.08.22v6.07a.37.37 0 0 0 .37.37h1.43v-.32a1.1 1.1 0 0 1 .06-.37h-1.24v-5.28h.11v-.09h5.68a.37.37 0 0 0 .37-.37.38.38 0 0 0-.09-.25h-6.44a.35.35 0 0 0-.18.02zM67.52 25h1.26v-3.72H44.19v3.63h1.56a1.26 1.26 0 0 1 .33.05zm-20.17-6h1.22a23.26 23.26 0 0 0-10.64-6.21l-.37.63v.05a22.64 22.64 0 0 1 9.79 5.47zM32 12.67a23.2 23.2 0 0 1 4.45.47.36.36 0 0 0 .39-.18l.26-.43-.77-.17v.05l-.28-.05a24.8 24.8 0 0 0-3.6-.42h-1.89a28.16 28.16 0 0 0-2.82.37l-.28.05-.76.16.23.42a.33.33 0 0 0 .33.18c.7-.14 1.42-.25 2.14-.33a23.32 23.32 0 0 1 2.51-.14H32zm-6.45-2.06l.69 1.2.76-.17-.67-1.16h-.09zm11.21 1l.76.17.68-1.18-.7-.12h-.09zm-9.56-1.26l.66 1.14a22.21 22.21 0 0 1 2.47-.29c.54 0 1.06-.07 1.57-.07h.58a23.57 23.57 0 0 1 3.46.34l.65-1.12h-.38a39 39 0 0 0-3.9-.22 46.26 46.26 0 0 0-4.71.21zm9.1-.84c.44.05.89.13 1.36.21l.74.12a.37.37 0 0 0 .37-.18.38.38 0 0 0-.13-.51l-.13-.05h-.25l-.58-.1c-.41-.07-.81-.14-1.25-.19h-.07a44.42 44.42 0 0 0-8.93 0h-.08c-.44.05-.85.12-1.25.19l-.57.09h-.25a.33.33 0 0 0-.24.14.35.35 0 0 0-.07.28.29.29 0 0 0 .05.13.37.37 0 0 0 .37.18l.74-.12c.47-.08.93-.16 1.38-.2a40.5 40.5 0 0 1 4.13-.22 39.83 39.83 0 0 1 4.64.22zm2.39-1.19a1.28 1.28 0 0 1 .35.14 1.09 1.09 0 0 1 .29.23l4.24-7.33a.37.37 0 0 0 0-.29.34.34 0 0 0-.17-.22.41.41 0 0 0-.18 0H20.55a.38.38 0 0 0-.37.37.32.32 0 0 0 .05.19l4.23 7.33a1.16 1.16 0 0 1 .64-.37l-3.91-6.83H42.6zM36.54 8c.45 0 .88.12 1.3.19l3.38-5.84H22.58l3.36 5.84c.43-.08.88-.15 1.34-.2h.07c.6-.06 1.2-.11 1.79-.14.75 0 1.49-.07 2.22-.08a42.84 42.84 0 0 1 5.06.23h.12zm24 52.68a3.54 3.54 0 1 1 3.54-3.54 3.54 3.54 0 0 1-3.55 3.53zm0-6.28a2.75 2.75 0 1 0 2.74 2.74 2.74 2.74 0 0 0-2.75-2.75zm0 4.74a2 2 0 1 1 2-2 2 2 0 0 1-2.01 1.99zm0-3.2a1.2 1.2 0 1 0 1.2 1.2 1.19 1.19 0 0 0-1.21-1.21zm-47.89-3.22h-1.86v-1.35a3.42 3.42 0 0 1-1.94-1 3.52 3.52 0 0 1-.8-2.37v-.4h2.42v.4a1.49 1.49 0 0 0 .31 1 1.19 1.19 0 0 0 .91.33 1.27 1.27 0 0 0 .88-.26.85.85 0 0 0 .28-.68.89.89 0 0 0-.25-.66 2.78 2.78 0 0 0-1-.57 10.42 10.42 0 0 1-1.37-.58 3 3 0 0 1-1.76-2.82 3 3 0 0 1 .78-2.1 3.13 3.13 0 0 1 1.72-.91v-1.54h1.87v1.54a3 3 0 0 1 1.72 1.08 3.77 3.77 0 0 1 .71 2.36v.4h-2.46v-.4a1.68 1.68 0 0 0-.3-1.07 1 1 0 0 0-1.43-.1.92.92 0 0 0-.24.71.87.87 0 0 0 .24.65 3.13 3.13 0 0 0 1.07.57 10.77 10.77 0 0 1 1.4.6 3.63 3.63 0 0 1 .91.69 2.71 2.71 0 0 1 .6.92 3.12 3.12 0 0 1 .21 1.19 2.9 2.9 0 0 1-.81 2.12 3.24 3.24 0 0 1-1.81.89zm-1.06-.8h.26v-1.27h.36a2.72 2.72 0 0 0 1.68-.71 2.12 2.12 0 0 0 .58-1.56 2.4 2.4 0 0 0-.15-.89 2.09 2.09 0 0 0-.43-.66 3 3 0 0 0-.73-.55 10.53 10.53 0 0 0-1.29-.55 3.94 3.94 0 0 1-1.35-.73 1.66 1.66 0 0 1-.52-1.27 1.68 1.68 0 0 1 .49-1.29A1.77 1.77 0 0 1 11.8 42a1.62 1.62 0 0 1 1.34.65 2.29 2.29 0 0 1 .45 1.16h.82a2.79 2.79 0 0 0-.54-1.47 2.19 2.19 0 0 0-1.53-.84h-.35V40h-.27v1.41h-.35a2.44 2.44 0 0 0-1.59.72 2.14 2.14 0 0 0-.56 1.55 2.28 2.28 0 0 0 1.34 2.12 9.38 9.38 0 0 0 1.26.53 3.38 3.38 0 0 1 1.35.77 1.62 1.62 0 0 1 .48 1.21 1.65 1.65 0 0 1-.53 1.27 2.05 2.05 0 0 1-1.43.47 1.94 1.94 0 0 1-1.49-.59 2 2 0 0 1-.51-1.17h-.83a2.54 2.54 0 0 0 .59 1.46 2.64 2.64 0 0 0 1.78.81h.36zm48.59-.45a3.54 3.54 0 1 1 3.55-3.54 3.54 3.54 0 0 1-3.55 3.54zm0-6.28a2.74 2.74 0 1 0 2.75 2.74 2.74 2.74 0 0 0-2.75-2.74zm0 4.74a2 2 0 1 1 2-2 2 2 0 0 1-2 2zm0-3.2a1.2 1.2 0 1 0 1.2 1.2 1.18 1.18 0 0 0-1.2-1.2z"/>
    </symbol>
    <use width="75" height="75" xlink:href="#a"/>
    <use width="85" height="75" x="100" xlink:href="#b"/>
    <use width="73" height="73" x="200" xlink:href="#c"/>
    <use width="73" height="73" x="300" xlink:href="#d"/>
    <use width="73" height="73" x="400" xlink:href="#e"/>
    <use width="78" height="74" x="500" xlink:href="#f"/>
    <use width="78" height="74" x="600" xlink:href="#g"/>
    <use width="72" height="75" x="700" xlink:href="#h"/>
</svg>
