<svg xmlns="http://www.w3.org/2000/svg" xmlns:xlink="http://www.w3.org/1999/xlink" width="18" height="20" viewBox="0 0 18 20">
    <path transform="translate(-1365 -935)" d="M1382.88 935.09a.36.36 0 0 0-.28-.09l-10.94 1.42a.35.35 0 0 0-.3.35v12.57a3.66 3.66 0 0 0-2.83-1.28c-1.95 0-3.53 1.42-3.53 3.18 0 1.75 1.58 3.17 3.53 3.17 1.95 0 3.53-1.42 3.53-3.17l-.01-.25v-10.3l10.24-1.33v6.45a3.66 3.66 0 0 0-2.82-1.28c-1.95 0-3.53 1.42-3.53 3.18 0 1.75 1.58 3.17 3.53 3.17 1.93 0 3.5-1.4 3.53-3.13V935.35c0-.1-.04-.2-.12-.26z"/>
</svg>
