<svg id="Слой_1" data-name="Слой 1" xmlns="http://www.w3.org/2000/svg" xmlns:xlink="http://www.w3.org/1999/xlink" viewBox="0 0 294.06 144.21"><defs><style>.cls-1{fill:#1b1b1b;}.cls-2{fill:url(#Безымянный_градиент_2);}</style><linearGradient id="Безымянный_градиент_2" x1="274.15" y1="325.76" x2="274.15" y2="181.97" gradientUnits="userSpaceOnUse"><stop offset="0" stop-color="#ad411f"/><stop offset="1" stop-color="#e59233"/></linearGradient></defs><title>logo</title><path class="cls-1" d="M110.19,281.21H115c4,0,6.79,2.76,6.79,6.4S119,294,115,294h-4.77ZM115,292a4.35,4.35,0,1,0,0-8.69h-2.52V292Z" transform="translate(-109.85 -181.97)"/><path class="cls-1" d="M131,281.21h2.25V294H131Z" transform="translate(-109.85 -181.97)"/><path class="cls-1" d="M142.49,287.61a6.51,6.51,0,0,1,6.59-6.61,6.94,6.94,0,0,1,4.92,1.73l-1.43,1.7a5,5,0,0,0-3.58-1.37,4.33,4.33,0,0,0-4.14,4.55,4.26,4.26,0,0,0,4.34,4.56,5.26,5.26,0,0,0,3.09-1v-2.4H149v-1.95h5.44v5.37a8.14,8.14,0,0,1-5.33,2A6.35,6.35,0,0,1,142.49,287.61Z" transform="translate(-109.85 -181.97)"/><path class="cls-1" d="M163.9,281.21h2.25V294H163.9Z" transform="translate(-109.85 -181.97)"/><path class="cls-1" d="M179.1,283.3H175v-2.09h10.38v2.09h-4.06V294H179.1Z" transform="translate(-109.85 -181.97)"/><path class="cls-1" d="M197.07,281.12h2.08L204.78,294h-2.37l-1.3-3.09h-6.05L193.75,294h-2.3Zm3.22,7.8-2.21-5.11-2.19,5.11Z" transform="translate(-109.85 -181.97)"/><path class="cls-1" d="M213.37,281.21h2.24V292h6.73V294h-9Z" transform="translate(-109.85 -181.97)"/><path class="cls-1" d="M109.85,249.2h18.27a28.87,28.87,0,1,0,0-57.73H109.85v-9.39h18.27a38.32,38.32,0,0,1,38.42,38.31,37.83,37.83,0,0,1-11.28,27,38.22,38.22,0,0,1-27.14,11.17H109.85Zm0-47.39h9.4V249.2h-9.4Z" transform="translate(-109.85 -181.97)"/><path class="cls-1" d="M213.93,258.6h-9.4V182.08h9.4Z" transform="translate(-109.85 -181.97)"/><path class="cls-2" d="M271.47,284.61l3.91-9.39h38.27v9.39Zm-43.78,40.93L296.86,182l3.92,11.17L237.69,325.76Zm82.59-41-19.94-43.11,5.11-11.07,25.16,54.18Z" transform="translate(-109.85 -181.97)"/><path class="cls-1" d="M361.63,265.9h-9.39V208.18h9.39Zm41.45,18.79H352.24V275.3h50.84Z" transform="translate(-109.85 -181.97)"/><path class="cls-1" d="M295.6,313.09h2.08L303.31,326h-2.38l-1.29-3.08h-6.05L292.28,326H290Zm3.22,7.8-2.21-5.12-2.2,5.12Z" transform="translate(-109.85 -181.97)"/><path class="cls-1" d="M310.91,319.57A6.51,6.51,0,0,1,317.5,313a6.94,6.94,0,0,1,4.92,1.73l-1.43,1.7a5,5,0,0,0-3.58-1.37,4.34,4.34,0,0,0-4.14,4.55,4.27,4.27,0,0,0,4.34,4.57,5.24,5.24,0,0,0,3.09-1v-2.39h-3.27v-2h5.44v5.37a8.12,8.12,0,0,1-5.33,2A6.35,6.35,0,0,1,310.91,319.57Z" transform="translate(-109.85 -181.97)"/><path class="cls-1" d="M332.56,313.18H342v2H334.8v3.32h6.42v2H334.8V324h7.33v2h-9.57Z" transform="translate(-109.85 -181.97)"/><path class="cls-1" d="M351.56,313.18h2.08l6.85,8.84v-8.84h2.21V326h-1.88l-7.05-9.09V326h-2.21Z" transform="translate(-109.85 -181.97)"/><path class="cls-1" d="M372.18,319.57a6.47,6.47,0,0,1,6.59-6.61,6.68,6.68,0,0,1,5,2l-1.45,1.66a5.06,5.06,0,0,0-3.57-1.59,4.56,4.56,0,0,0,0,9.1,5,5,0,0,0,3.67-1.66l1.44,1.46a6.58,6.58,0,0,1-5.19,2.26A6.44,6.44,0,0,1,372.18,319.57Z" transform="translate(-109.85 -181.97)"/><path class="cls-1" d="M396.57,320.92l-5.08-7.74h2.65l3.58,5.66,3.61-5.66h2.58l-5.08,7.69V326h-2.26Z" transform="translate(-109.85 -181.97)"/></svg>